<svg xmlns="http://www.w3.org/2000/svg" viewBox="0 0 134.917 75">
  <defs>
    <style>
      .cls-1 {
        fill: #313366;
      }

      .cls-2 {
        fill: #f16722;
      }
    </style>
  </defs>
  <g id="Group_8812" data-name="Group 8812" transform="translate(-2193.64 -863.97)">
    <path id="Path_777" data-name="Path 777" class="cls-1" d="M120.671,23.419a3.163,3.163,0,0,0,2.928,1.645,2.259,2.259,0,0,0,2.494-2.332c0-3.308-6.037-1.5-6.037-5.6a3.362,3.362,0,0,1,3.615-3.344,4.32,4.32,0,0,1,3.109,1.41l-.651.8a3.615,3.615,0,0,0-2.458-1.139,2.223,2.223,0,0,0-2.531,2.205c0,2.946,6.055,1.392,6.055,5.567a3.452,3.452,0,0,1-3.615,3.507,4.085,4.085,0,0,1-3.742-2.061Z" transform="translate(2137.336 850.674)"/>
    <path id="Path_778" data-name="Path 778" class="cls-1" d="M133.317,20.089a4.429,4.429,0,1,1-4.411-4.519A4.5,4.5,0,0,1,133.317,20.089Zm-7.827,0a3.416,3.416,0,1,0,3.416-3.525,3.489,3.489,0,0,0-3.471,3.525Z" transform="translate(2141.068 852.124)"/>
    <path id="Path_779" data-name="Path 779" class="cls-1" d="M130.939,17.4v-.9c0-2.531,1.536-2.928,3.308-2.928l.271,1.012c-2.35,0-2.585.416-2.585,2.133V17.4h2.458V18.4h-2.422v7.628l-.994.2V18.4H129.8l.253-.994Z" transform="translate(2145.38 850.508)"/>
    <path id="Path_780" data-name="Path 780" class="cls-1" d="M133.407,14.77l.994-.56v2.675h2.35v.994H134.4V23.3c0,1.048.452,1.428,1.555,1.428h.813v.922a4.935,4.935,0,0,1-.9.108,2.241,2.241,0,0,1-2.458-2.458V17.879H132.25l.253-.994h.9Z" transform="translate(2147.358 851.025)"/>
    <path id="Path_781" data-name="Path 781" class="cls-1" d="M141.567,17.793l-3.055,6.815h0l-3.832-8.821.976-.217,2.874,6.58,3.109-6.58,3.217,6.58,2.928-6.58.958.217-3.868,8.821h0Z" transform="translate(2149.321 852.124)"/>
    <path id="Path_782" data-name="Path 782" class="cls-1" d="M143.679,16.094a6.652,6.652,0,0,1,2.513-.524c1.338,0,2.693.7,2.693,2.187v6.652l-.994.2v-1.03h0a2.277,2.277,0,0,1-2.115,1.085,3.145,3.145,0,1,1-.127-6.272,3.615,3.615,0,0,1,2.278.994V17.956c0-.723-.886-1.338-2.024-1.338a8.64,8.64,0,0,0-2.512.687Zm2.133,7.483a2.151,2.151,0,0,0,0-4.284,2.146,2.146,0,1,0,0,4.284Z" transform="translate(2155.505 852.124)"/>
    <path id="Path_783" data-name="Path 783" class="cls-1" d="M147.99,17.518h0a2.946,2.946,0,0,1,3.2-1.934l-.434,1.012h-.4c-1.085,0-2.4,1.338-2.4,3.507v4.338l-.994.2V15.8l.994-.217Z" transform="translate(2159.238 852.11)"/>
    <path id="Path_784" data-name="Path 784" class="cls-1" d="M150.68,21.626a3.507,3.507,0,0,0,3.055,1.97,5.152,5.152,0,0,0,3.272-1.428v1.211a4.916,4.916,0,0,1-3.2,1.211,4.392,4.392,0,0,1-4.465-4.609,4.3,4.3,0,0,1,4.5-4.429,3.959,3.959,0,0,1,3.4,2.006Zm5.007-4.284a2.494,2.494,0,0,0-1.808-.759,3.4,3.4,0,0,0-3.543,3.4,3.215,3.215,0,0,0,0,.7Z" transform="translate(2161.157 852.105)"/>
    <path id="Path_785" data-name="Path 785" class="cls-1" d="M123.193,22c2.006,0,3.326.94,3.326,3.091a2.675,2.675,0,0,1-1.536,2.6,2.946,2.946,0,0,1,1.808,2.91c0,2.043-1.211,3.181-3.724,3.181H120.12V22Zm-1.934,5.278h1.627c1.717,0,2.585-.831,2.585-2.169a1.97,1.97,0,0,0-2.133-2.043h-2.079Zm0,5.423h1.808c2.115,0,2.639-1.012,2.639-2.133a2.115,2.115,0,0,0-2.3-2.259h-2.151Z" transform="translate(2137.563 857.508)"/>
    <path id="Path_786" data-name="Path 786" class="cls-1" d="M125.776,23.66v5.712c0,1.555.615,2.422,2.1,2.422s2.639-.578,2.639-4.049V23.859l1.012-.2v8.821l-1.012.145V31.2h0a2.964,2.964,0,0,1-2.711,1.5c-2.187,0-3-1.247-3-3.2v-5.64Z" transform="translate(2141.342 858.877)"/>
    <path id="Path_787" data-name="Path 787" class="cls-1" d="M129.973,30.75a2.856,2.856,0,0,0,2.169.958A1.645,1.645,0,0,0,133.95,30.1c0-2.169-4.555-.9-4.555-3.922a2.621,2.621,0,0,1,2.838-2.513,4.176,4.176,0,0,1,2.585,1.012l-.56.8a3.507,3.507,0,0,0-2.061-.813c-.994,0-1.808.47-1.808,1.464,0,2.169,4.555.741,4.555,3.922,0,1.808-1.392,2.657-3.073,2.657a3.615,3.615,0,0,1-2.711-1.3Z" transform="translate(2144.863 858.872)"/>
    <path id="Path_788" data-name="Path 788" class="cls-1" d="M134.891,22.546l-.8.9-.8-.9.8-.886ZM133.68,34.313V25.474l.994-.2V34.1Z" transform="translate(2148.206 857.229)"/>
    <path id="Path_789" data-name="Path 789" class="cls-1" d="M135.36,32.626V23.859l.994-.2v1.428h0a2.983,2.983,0,0,1,2.494-1.428c1.663,0,3.2.651,3.2,3.037v5.784l-.994.145V26.48c0-1.265-.813-1.934-2.187-1.934a2.494,2.494,0,0,0-2.549,2.35v5.585Z" transform="translate(2149.87 858.876)"/>
    <path id="Path_790" data-name="Path 790" class="cls-1" d="M141.16,29.683a3.615,3.615,0,0,0,3.055,2.024,5.206,5.206,0,0,0,3.272-1.428v1.211a4.935,4.935,0,0,1-3.2,1.229,4.392,4.392,0,0,1-4.465-4.627,4.3,4.3,0,0,1,4.5-4.41,3.959,3.959,0,0,1,3.4,2.006Zm5.007-4.266a2.5,2.5,0,0,0-1.808-.759,3.4,3.4,0,0,0-3.507,3.434,3.108,3.108,0,0,0,0,.7Z" transform="translate(2153.469 858.891)"/>
    <path id="Path_791" data-name="Path 791" class="cls-1" d="M145.285,30.75a2.874,2.874,0,0,0,2.169.958,1.645,1.645,0,0,0,1.808-1.609c0-2.169-4.555-.9-4.555-3.922a2.621,2.621,0,0,1,2.856-2.513,4.085,4.085,0,0,1,2.567,1.012l-.56.8a3.416,3.416,0,0,0-2.061-.813c-.976,0-1.808.47-1.808,1.464,0,2.169,4.555.741,4.555,3.922,0,1.808-1.392,2.657-3.073,2.657a3.615,3.615,0,0,1-2.693-1.3Z" transform="translate(2157.243 858.872)"/>
    <path id="Path_792" data-name="Path 792" class="cls-1" d="M148.985,30.75a2.874,2.874,0,0,0,2.169.958,1.645,1.645,0,0,0,1.808-1.609c0-2.169-4.555-.9-4.555-3.922a2.621,2.621,0,0,1,2.856-2.513,4.085,4.085,0,0,1,2.567,1.012l-.56.8a3.417,3.417,0,0,0-2.061-.813c-.976,0-1.808.47-1.808,1.464,0,2.169,4.555.741,4.555,3.922,0,1.808-1.392,2.657-3.073,2.657a3.615,3.615,0,0,1-2.693-1.3Z" transform="translate(2160.231 858.872)"/>
    <path id="Path_793" data-name="Path 793" class="cls-1" d="M120.639,39.551a3.163,3.163,0,0,0,2.928,1.645,2.259,2.259,0,0,0,2.494-2.332c0-3.308-6.037-1.5-6.037-5.6a3.362,3.362,0,0,1,3.687-3.254,4.32,4.32,0,0,1,3.109,1.41l-.651.8a3.615,3.615,0,0,0-2.458-1.139,2.223,2.223,0,0,0-2.531,2.205c0,2.946,6.055,1.392,6.055,5.567a3.452,3.452,0,0,1-3.615,3.507,4.085,4.085,0,0,1-3.742-2.061Z" transform="translate(2137.369 864.146)"/>
    <path id="Path_794" data-name="Path 794" class="cls-1" d="M133.317,36.259a4.429,4.429,0,1,1-4.411-4.519A4.5,4.5,0,0,1,133.317,36.259Zm-7.827,0a3.416,3.416,0,1,0,3.416-3.615,3.489,3.489,0,0,0-3.471,3.615Z" transform="translate(2141.068 865.576)"/>
    <path id="Path_795" data-name="Path 795" class="cls-1" d="M131.334,42.194l-.994.2V29.957l.994-.217Z" transform="translate(2145.816 863.939)"/>
    <path id="Path_796" data-name="Path 796" class="cls-1" d="M133.176,31.74v5.73c0,1.536.615,2.422,2.1,2.422s2.639-.578,2.639-4.049V31.957l1.012-.217v8.839l-1.012.145V39.3h0a2.982,2.982,0,0,1-2.711,1.482c-2.187,0-3-1.229-3-3.181v-5.64Z" transform="translate(2147.318 865.577)"/>
    <path id="Path_797" data-name="Path 797" class="cls-1" d="M137.613,30.94l.994-.56v2.675h2.4v.994h-2.332v5.423c0,1.048.434,1.428,1.536,1.428h.8v.922a4.574,4.574,0,0,1-.886.108,2.241,2.241,0,0,1-2.458-2.458V34.049H136.51l.235-.994h.922Z" transform="translate(2150.798 864.464)"/>
    <path id="Path_798" data-name="Path 798" class="cls-1" d="M141.223,30.644l-.8.886-.777-.886.777-.9Zm-1.211,11.749V33.572l1.012-.217v8.839Z" transform="translate(2153.334 863.939)"/>
    <path id="Path_799" data-name="Path 799" class="cls-1" d="M150.21,36.259a4.411,4.411,0,1,1-4.41-4.519,4.5,4.5,0,0,1,4.41,4.519Zm-7.827,0a3.416,3.416,0,1,0,3.416-3.615,3.507,3.507,0,0,0-3.416,3.615Z" transform="translate(2154.74 865.576)"/>
    <path id="Path_800" data-name="Path 800" class="cls-1" d="M147,40.724V31.957l.994-.217v1.428h0a3.037,3.037,0,0,1,2.494-1.428c1.663,0,3.217.651,3.217,3.055v5.784l-1.012.145V34.56c0-1.247-.8-1.916-2.169-1.916a2.494,2.494,0,0,0-2.567,2.35v5.585Z" transform="translate(2159.27 865.577)"/>
    <path id="Path_801" data-name="Path 801" class="cls-1" d="M152.173,38.847a2.892,2.892,0,0,0,2.169.94A1.59,1.59,0,0,0,156.15,38.2c0-2.169-4.555-.922-4.555-3.941a2.639,2.639,0,0,1,2.838-2.513,4.266,4.266,0,0,1,2.585,1.012l-.56.8a3.507,3.507,0,0,0-2.061-.813c-.994,0-1.808.488-1.808,1.464,0,2.169,4.555.741,4.555,3.941,0,1.808-1.392,2.639-3.073,2.639a3.615,3.615,0,0,1-2.711-1.3Z" transform="translate(2162.791 865.573)"/>
    <path id="Path_802" data-name="Path 802" class="cls-1" d="M127.926,49.825a5.6,5.6,0,0,1-2.223.56,6.182,6.182,0,0,1,0-12.346,5.586,5.586,0,0,1,2.223.542l.163,1.32a4.3,4.3,0,0,0-2.458-.8,5.115,5.115,0,0,0,0,10.213,4.067,4.067,0,0,0,2.458-.8Z" transform="translate(2137.348 870.83)"/>
    <path id="Path_803" data-name="Path 803" class="cls-1" d="M133.83,44.349a4.41,4.41,0,1,1-4.41-4.519A4.5,4.5,0,0,1,133.83,44.349Zm-7.827,0a3.416,3.416,0,1,0,3.416-3.525A3.507,3.507,0,0,0,126,44.349Z" transform="translate(2141.512 872.283)"/>
    <path id="Path_804" data-name="Path 804" class="cls-1" d="M130.61,48.8V40.029l.994-.2v1.428h0A3.037,3.037,0,0,1,134.1,39.83c1.663,0,3.217.651,3.217,3.037v5.784l-.994.145V42.65c0-1.265-.813-1.934-2.187-1.934a2.494,2.494,0,0,0-2.567,2.35v5.585Z" transform="translate(2146.034 872.285)"/>
    <path id="Path_805" data-name="Path 805" class="cls-1" d="M135.793,46.92a2.856,2.856,0,0,0,2.169.958,1.645,1.645,0,0,0,1.808-1.609c0-2.169-4.555-.9-4.555-3.922a2.621,2.621,0,0,1,2.856-2.513,4.085,4.085,0,0,1,2.567,1.012l-.56.8a3.453,3.453,0,0,0-2.061-.813c-.994,0-1.808.47-1.808,1.464,0,2.169,4.555.741,4.555,3.922,0,1.808-1.392,2.657-3.073,2.657a3.615,3.615,0,0,1-2.711-1.3Z" transform="translate(2149.563 872.281)"/>
    <path id="Path_806" data-name="Path 806" class="cls-1" d="M140.048,39.83v5.73c0,1.555.615,2.422,2.1,2.422s2.639-.578,2.639-4.049v-3.9l.994-.2v8.821l-.994.145V47.368h0a2.928,2.928,0,0,1-2.693,1.5c-2.187,0-3-1.247-3-3.2v-5.64Z" transform="translate(2152.882 872.285)"/>
    <path id="Path_807" data-name="Path 807" class="cls-1" d="M145.084,50.266l-.994.217V38.029l.994-.2Z" transform="translate(2156.92 870.658)"/>
    <path id="Path_808" data-name="Path 808" class="cls-1" d="M146.568,39.012l1.012-.542v2.657H150v.994h-2.332v5.332c0,1.048.434,1.446,1.536,1.446a6.13,6.13,0,0,0,.813,0v.922a4.754,4.754,0,0,1-.9.108,2.241,2.241,0,0,1-2.458-2.458v-5.35H145.52l.235-.994h.9Z" transform="translate(2158.075 871.179)"/>
    <path id="Path_809" data-name="Path 809" class="cls-1" d="M150.221,38.716l-.8.9-.8-.9.8-.886ZM149.01,50.483V41.644l.994-.2v8.821Z" transform="translate(2160.586 870.658)"/>
    <path id="Path_810" data-name="Path 810" class="cls-1" d="M150.69,48.8V40.029l.994-.2v1.428h0a3.037,3.037,0,0,1,2.494-1.428c1.663,0,3.217.651,3.217,3.037v5.784l-1.012.145V42.65c0-1.265-.8-1.934-2.169-1.934a2.494,2.494,0,0,0-2.567,2.35v5.585Z" transform="translate(2162.25 872.285)"/>
    <path id="Path_811" data-name="Path 811" class="cls-1" d="M155.669,49.312a4.121,4.121,0,0,0,3.145,1.663c1.392,0,2.874-.868,2.874-2.169A2.675,2.675,0,0,0,158.9,46.33a6.109,6.109,0,0,0-2.259.488l.362-1.139a2.874,2.874,0,0,1-1.663-2.44,3.29,3.29,0,0,1,3.615-3.254h1.048a14.659,14.659,0,0,0,2.82-.325l-.289,1.012a2.567,2.567,0,0,1-.759.108,1.934,1.934,0,0,1-.452,0h0a3.055,3.055,0,0,1,1.3,2.386,2.91,2.91,0,0,1-1.808,2.639,3.073,3.073,0,0,1,1.988,2.856,3.615,3.615,0,0,1-3.959,3.29,4.9,4.9,0,0,1-3.85-2.1Zm.669-6.11a2.368,2.368,0,0,0,2.6,2.187A2.422,2.422,0,0,0,161.58,43.2a2.639,2.639,0,0,0-5.242,0Z" transform="translate(2165.73 872.174)"/>
    <path id="Path_812" data-name="Path 812" class="cls-2" d="M94.239,64.592a17.317,17.317,0,0,0,32.229-9.038c0-9.905-6.833-15.961-16.033-17.5-3.615-.578-6.308-2.711-6.308-6.724a6.778,6.778,0,0,1,7.23-6.9A6.652,6.652,0,0,1,116.78,27.7l-1.374.488a5.423,5.423,0,0,0-4.447-2.4,5.506,5.506,0,0,0-.271,11.008c9.905,1.808,17.226,8.008,17.226,18.763a18.835,18.835,0,0,1-18.672,18.853,19.052,19.052,0,0,1-16.124-9.038A27.116,27.116,0,0,1,90.57,59.35l1.808.868A22.648,22.648,0,0,0,94.239,64.592Zm9.4-5.531a6.4,6.4,0,0,0,5.423,3.145,6.489,6.489,0,0,0,6.4-6.561,6.742,6.742,0,0,0-6.146-6.652c-9.291-1.536-16.105-7.682-16.105-17.66A17.714,17.714,0,0,1,110.851,13.51a18.184,18.184,0,0,1,16.268,11.08c.253.6,1.139,3.4,1.374,3.977l-1.808-1.03s-.325-1.1-.759-2.169a16.774,16.774,0,0,0-15.184-10.5A16.593,16.593,0,0,0,94.366,31.423c0,9.038,6.326,14.75,14.84,16.268,4.266.687,7.52,3.326,7.52,8.026A7.718,7.718,0,0,1,102.265,59.8Zm-7.23,3.922a14.858,14.858,0,0,0,12.653,7.5,14.7,14.7,0,0,0,14.587-14.84c0-8.441-5.8-13.394-13.557-14.677-4.953-.85-8.694-4.266-8.694-9.544a9.436,9.436,0,0,1,18-4.374l-1.392.325A8.116,8.116,0,0,0,102.753,31.4c0,4.682,3.254,7.411,7.52,8.1,8.441,1.446,14.822,7.086,14.822,16.124a16.124,16.124,0,0,1-15.943,16.268,16.521,16.521,0,0,1-13.81-8.008,15.2,15.2,0,0,1-1.536-3.308l-.2-.85,1.808.6s-.633-.072,1.03,2.657Zm27.2-36.151a13.557,13.557,0,0,0-26.354,5.025c0,7.23,5.64,12.111,12.291,13.141,5.622.85,10.05,4.519,10.05,10.665a10.538,10.538,0,0,1-10.556,10.665,10.231,10.231,0,0,1-9.219-5.64l1.1-.85a9.436,9.436,0,0,0,7.718,5.17,9.182,9.182,0,0,0,9.634-9.291c0-5.3-3.832-8.622-8.785-9.381-7.755-1.211-13.394-6.634-13.394-15a14.822,14.822,0,0,1,28.74-5.3l.488,1.464-1.681-.687M98.758,61.393a11.8,11.8,0,0,0,22.251-5.8c0-6.833-4.953-11.1-11.261-12.02s-10.99-5.5-10.99-12.147a12.111,12.111,0,0,1,23.5-4.537,4.461,4.461,0,0,1,.181.524l-1.446-.47A10.845,10.845,0,1,0,110,42.341c6.724,1.1,12.436,5.423,12.436,12.87a13.213,13.213,0,0,1-24.8,7c-.361-.651-.868-1.5-.868-1.5h1.808a5.715,5.715,0,0,0,.181.687Z" transform="translate(2113.698 850.46)"/>
    <path id="Path_813" data-name="Path 813" class="cls-1" d="M131.325,56.744a22.612,22.612,0,0,0,4.645-2.079A17.407,17.407,0,0,0,126.825,22.4c-9.905,0-15.961,6.833-17.5,16.033-.6,3.615-2.729,6.327-6.724,6.327a6.8,6.8,0,0,1-6.923-7.23,6.706,6.706,0,0,1,3.471-5.423l.524,1.32a5.423,5.423,0,0,0-2.621,4.609,5.505,5.505,0,1,0,11.008.253c1.808-9.887,8.008-17.226,18.763-17.226a18.726,18.726,0,0,1,9.725,34.8,20.282,20.282,0,0,1-5.947,2.549Zm.416-12.653a6.381,6.381,0,0,0,1.645-4.374,6.489,6.489,0,0,0-6.561-6.4,6.742,6.742,0,0,0-6.652,6.146c-1.536,9.291-7.682,16.124-17.66,16.124A17.714,17.714,0,0,1,84.69,37.927,18.076,18.076,0,0,1,95.77,21.659a25.109,25.109,0,0,1,3.019-1.139l-.361,1.464-1.808.777a16.774,16.774,0,0,0-10.5,15.184,16.594,16.594,0,0,0,16.557,16.377c9.038,0,14.75-6.308,16.268-14.84.687-4.266,3.326-7.5,8.026-7.5a7.754,7.754,0,0,1,7.917,8.188,7.465,7.465,0,0,1-2.639,5.314S131.9,44.669,131.741,44.091Zm-33.1-13.466a8.478,8.478,0,0,0-4.356,6.887,8.206,8.206,0,0,0,8.279,8.6c4.682,0,7.411-3.236,8.1-7.5,1.446-8.441,7.068-14.84,16.124-14.84a16.142,16.142,0,0,1,16.268,15.943,15.943,15.943,0,0,1-8.062,13.756,21.365,21.365,0,0,1-3.019,1.428l.362-1.627A14.931,14.931,0,0,0,141.7,39.716a14.7,14.7,0,0,0-14.876-14.587c-8.459,0-13.394,5.8-14.677,13.575-.85,4.935-4.266,8.694-9.544,8.694a9.436,9.436,0,0,1-4.212-17.985m34,17.624a9.038,9.038,0,0,0-5.567-16.449c-5.3,0-8.622,3.85-9.381,8.785-1.211,7.773-6.652,13.394-14.931,13.394a14.822,14.822,0,0,1-5.3-28.74l.94-.325s-.108,1.193-.108,1.428a13.593,13.593,0,0,0,4.971,26.445c7.23,0,12.111-5.622,13.141-12.273.85-5.64,4.519-10.068,10.665-10.068a10.52,10.52,0,0,1,10.647,10.574,10.393,10.393,0,0,1-4.935,8.875c0-.524-.145-1.645-.145-1.645Zm.2,2.946a10.7,10.7,0,0,0,6.345-10.177,12.02,12.02,0,0,0-12.111-11.948c-6.833,0-11.1,4.953-12.038,11.261S109.255,50.128,102.6,50.128A12.093,12.093,0,0,1,98.084,26.81l.09,1.283a10.719,10.719,0,0,0-6.58,9.924,10.99,10.99,0,0,0,21.926,1.03c1.1-6.742,5.423-12.454,12.87-12.454s14.063,5.423,13.9,13.213A12.527,12.527,0,0,1,132.5,51.773Z" transform="translate(2108.95 856.393)"/>
    <path id="Path_814" data-name="Path 814" class="cls-2" d="M121.228,49.548h.8a3.037,3.037,0,0,1,3.272,3.76,4.736,4.736,0,0,1-4.682,3.778h-.723Zm-.452,6.815a3.615,3.615,0,0,0,3.742-3.109,2.44,2.44,0,0,0-2.494-3H121.9Z" transform="translate(2137.377 880.33)"/>
    <path id="Path_815" data-name="Path 815" class="cls-2" d="M123.844,54.228a1.175,1.175,0,0,0,1.121.813,2.8,2.8,0,0,0,1.265-.38v.633a3.308,3.308,0,0,1-1.392.38,1.808,1.808,0,0,1-1.808-2.1,2.621,2.621,0,0,1,2.458-2.1,1.555,1.555,0,0,1,1.573,1.121Zm2.422-1.808a.886.886,0,0,0-.8-.343,1.808,1.808,0,0,0-1.681,1.374.452.452,0,0,0,0,.217Z" transform="translate(2139.894 881.904)"/>
    <path id="Path_816" data-name="Path 816" class="cls-2" d="M127.393,49.47l-1.338,7.592-.7.127,1.338-7.592Z" transform="translate(2141.786 880.281)"/>
    <path id="Path_817" data-name="Path 817" class="cls-2" d="M128.182,50.96l-.633.524-.452-.542.651-.542Zm-1.157,1.555.687-.127-.687,3.922-.7.127Z" transform="translate(2142.569 881.032)"/>
    <path id="Path_818" data-name="Path 818" class="cls-2" d="M128.167,51.5l.651,2.711,1.7-2.711.7.127L128.493,55.8l-1.1-4.176Z" transform="translate(2143.433 881.921)"/>
    <path id="Path_819" data-name="Path 819" class="cls-2" d="M130.244,54.228a1.175,1.175,0,0,0,1.121.813,2.8,2.8,0,0,0,1.265-.38v.633a3.308,3.308,0,0,1-1.392.38,1.808,1.808,0,0,1-1.717-2.1,2.639,2.639,0,0,1,2.458-2.1,1.555,1.555,0,0,1,1.573,1.121Zm2.422-1.808a.886.886,0,0,0-.8-.343,1.808,1.808,0,0,0-1.681,1.374.886.886,0,0,0,0,.217Z" transform="translate(2145.135 881.904)"/>
    <path id="Path_820" data-name="Path 820" class="cls-2" d="M132.457,51.627l.651-.127-.108.615a1.988,1.988,0,0,1,1.3-.615l-.217.615c-.687.108-1.193.651-1.392,1.808l-.271,1.536-.651.127Z" transform="translate(2146.97 881.921)"/>
    <path id="Path_821" data-name="Path 821" class="cls-2" d="M134.924,50.952l-.651.542-.434-.542.633-.542Zm-1.157,1.555.687-.127-.687,3.922-.687.127Z" transform="translate(2148.028 881.04)"/>
    <path id="Path_822" data-name="Path 822" class="cls-2" d="M134.735,51.664l.651-.127v.47a1.808,1.808,0,0,1,1.247-.542,1.139,1.139,0,0,1,1.247,1.482l-.452,2.513-.687.127.416-2.314c.108-.7-.127-1.139-.687-1.139a1.32,1.32,0,0,0-1.265,1.175l-.38,2.151-.7.127Z" transform="translate(2148.868 881.883)"/>
    <path id="Path_823" data-name="Path 823" class="cls-2" d="M136.908,55.945a1.157,1.157,0,0,0,.976.6,1.193,1.193,0,0,0,1.1-.922.777.777,0,0,0-.777-.9,1.518,1.518,0,0,0-.976.452l-.343-.488a1.554,1.554,0,0,1,.651-.38h0a1.012,1.012,0,0,1-.723-1.229,1.916,1.916,0,0,1,1.934-1.536,1.03,1.03,0,0,1,.434,0l.976-.145-.181.434h-.307a1.121,1.121,0,0,1,.307,1.085,1.645,1.645,0,0,1-1.265,1.283h0a1.012,1.012,0,0,1,.868,1.283,1.988,1.988,0,0,1-1.952,1.573,1.681,1.681,0,0,1-1.3-.687Zm1.428-2.079a1.139,1.139,0,0,0,1.1-.886.723.723,0,0,0-.8-.868,1.121,1.121,0,0,0-1.085.868.723.723,0,0,0,.777.886Z" transform="translate(2150.653 881.832)"/>
    <path id="Path_824" data-name="Path 824" class="cls-2" d="M141.4,49.544h.813a3.055,3.055,0,0,1,3.2,3.76,4.754,4.754,0,0,1-4.7,3.778h-.7Zm-.452,6.815a3.615,3.615,0,0,0,3.76-3.109,2.44,2.44,0,0,0-2.494-3h-.181Z" transform="translate(2153.625 880.334)"/>
    <path id="Path_825" data-name="Path 825" class="cls-2" d="M144.994,50.952l-.633.542-.452-.542.633-.542Zm-1.139,1.555.687-.127-.7,3.922-.687.127Z" transform="translate(2156.161 881.04)"/>
    <path id="Path_826" data-name="Path 826" class="cls-2" d="M145.162,51.219a1.808,1.808,0,0,1,1.916-1.808v.615a1.283,1.283,0,0,0-1.193,1.121l-.362,2.043h.958l-.108.6h-.94l-.578,3.272-.7.127Z" transform="translate(2156.969 880.231)"/>
    <path id="Path_827" data-name="Path 827" class="cls-2" d="M146.375,51.218a1.9,1.9,0,0,1,1.916-1.808v.615a1.283,1.283,0,0,0-1.193,1.121l-.362,2.043h.958l-.108.6h-1.012l-.578,3.272-.7.127Z" transform="translate(2157.889 880.233)"/>
    <path id="Path_828" data-name="Path 828" class="cls-2" d="M147.374,54.228a1.175,1.175,0,0,0,1.121.813,2.8,2.8,0,0,0,1.265-.38v.633a3.308,3.308,0,0,1-1.392.38,1.808,1.808,0,0,1-1.808-2.1,2.6,2.6,0,0,1,2.458-2.1,1.573,1.573,0,0,1,1.573,1.121Zm2.4-1.808a.85.85,0,0,0-.777-.343,1.808,1.808,0,0,0-1.681,1.374.452.452,0,0,0,0,.217Z" transform="translate(2158.896 881.904)"/>
    <path id="Path_829" data-name="Path 829" class="cls-2" d="M149.507,51.627l.651-.127-.108.615a1.988,1.988,0,0,1,1.3-.615l-.217.615c-.7.108-1.193.651-1.392,1.808l-.271,1.536-.651.127Z" transform="translate(2160.74 881.921)"/>
    <path id="Path_830" data-name="Path 830" class="cls-2" d="M150.934,54.228a1.175,1.175,0,0,0,1.121.813,2.8,2.8,0,0,0,1.265-.38v.633a3.308,3.308,0,0,1-1.392.38,1.808,1.808,0,0,1-1.717-2.1,2.6,2.6,0,0,1,2.458-2.1,1.573,1.573,0,0,1,1.573,1.121Zm2.4-1.808a.849.849,0,0,0-.777-.343,1.808,1.808,0,0,0-1.681,1.374.452.452,0,0,0,0,.217Z" transform="translate(2161.844 881.904)"/>
    <path id="Path_831" data-name="Path 831" class="cls-2" d="M153.2,51.664l.651-.127-.09.47a1.808,1.808,0,0,1,1.247-.542,1.139,1.139,0,0,1,1.247,1.482l-.452,2.513-.687.127.416-2.314c.108-.7-.127-1.139-.687-1.139a1.32,1.32,0,0,0-1.265,1.175l-.38,2.151-.7.127Z" transform="translate(2163.711 881.883)"/>
    <path id="Path_832" data-name="Path 832" class="cls-2" d="M156.218,56.082h-.235c-.813,0-1.03-.416-.922-.994l.416-2.35h-.271l.163-.6h.2l.235-1.283.687-.108-.253,1.392h.9l-.108.6h-.886l-.416,2.3c0,.289,0,.452.434.452h.271Z" transform="translate(2165.759 881.315)"/>
    <path id="Path_833" data-name="Path 833" class="cls-2" d="M158.154,49.47l-1.338,7.592-.687.127,1.338-7.592Z" transform="translate(2166.643 880.281)"/>
    <path id="Path_834" data-name="Path 834" class="cls-2" d="M157.354,51.627l.741-.127.85,2.35,1.609-2.35.687.127-3.724,5.423-.687-.127,1.609-2.368Z" transform="translate(2167.208 881.921)"/>
  </g>
</svg>
