<svg xmlns="http://www.w3.org/2000/svg" width="108.794" height="66.24" viewBox="0 0 108.794 66.24">
  <defs>
    <style>
      .cls-1 {
        fill: #313366;
      }

      .cls-2 {
        fill: #f16722;
      }
    </style>
  </defs>
  <g id="noun_confirm_mail_410917" data-name="noun_confirm mail_410917" transform="translate(-21.768 -33.19)">
    <path id="Path_2824" data-name="Path 2824" class="cls-1" d="M94.281,92.847H26.34a2.735,2.735,0,0,1-.927-.172.782.782,0,0,1-.086-.027,2.77,2.77,0,0,1-.735-.448c-.035-.027-.068-.053-.1-.082a2.769,2.769,0,0,1-.519-.655c-.026-.042-.048-.084-.069-.126a2.8,2.8,0,0,1-.263-.812c0-.024,0-.048-.007-.071C25.8,88.311,39.1,75.227,49.7,65.2c7.075,6.629,12.28,11.19,13.211,11.19h20.03c.929,0,6.134-4.559,13.209-11.19.252.238.51.483.764.724.43-.433.885-.843,1.35-1.24-.26-.245-.521-.5-.779-.739,7.33-6.905,16.4-15.743,24.774-24v22.17c.629.338,1.24.7,1.829,1.1V37.762a4.578,4.578,0,0,0-4.572-4.572H26.34a4.577,4.577,0,0,0-4.572,4.572V90.105a4.577,4.577,0,0,0,4.572,4.572H95.634A22.089,22.089,0,0,1,94.281,92.847ZM23.639,37.341a2.688,2.688,0,0,1,.263-.814c.022-.042.044-.084.068-.126a2.834,2.834,0,0,1,.521-.657c.033-.029.066-.055.1-.082a2.762,2.762,0,0,1,.737-.448c.027-.011.059-.016.086-.027a2.692,2.692,0,0,1,.927-.172h93.179a2.725,2.725,0,0,1,.925.172.673.673,0,0,1,.086.027,2.752,2.752,0,0,1,.737.448c.035.027.068.053.1.082a2.741,2.741,0,0,1,.521.657,1.383,1.383,0,0,1,.068.126,2.743,2.743,0,0,1,.265.814c0,.024,0,.048.007.071-14.094,13.9-36.84,35.87-39.414,37.147H63.046c-2.577-1.276-25.321-23.243-39.414-37.147C23.635,37.389,23.635,37.365,23.639,37.341Zm-.042,2.6c8.376,8.255,17.442,17.093,24.772,24C39.051,72.76,27.686,83.9,23.6,87.92Z" transform="translate(0)"/>
    <path id="Path_2825" data-name="Path 2825" class="cls-2" d="M79.533,49.26A18.426,18.426,0,1,0,97.959,67.686,18.445,18.445,0,0,0,79.533,49.26Zm0,35.024a16.6,16.6,0,1,1,16.6-16.6A16.613,16.613,0,0,1,79.533,84.284Z" transform="translate(32.604 13.318)"/>
    <path id="Path_2826" data-name="Path 2826" class="cls-2" d="M85.068,54.534h-.3a1.2,1.2,0,0,0-.971.5L73.695,69.045l-6.018-6.11a1.238,1.238,0,0,0-1.7-.013,1.2,1.2,0,0,0-.015,1.7l6.973,7.074.344.3.556.106a1.277,1.277,0,0,0,.62-.179L85.75,56.432a1.2,1.2,0,0,0-.272-1.67Z" transform="translate(36.342 17.688)"/>
  </g>
</svg>
