<svg id="Group_8856" data-name="Group 8856" xmlns="http://www.w3.org/2000/svg" xmlns:xlink="http://www.w3.org/1999/xlink" viewBox="0 0 376.3 323.7">
  <defs>
    <style>
      .cls-1 {
        fill: #313366;
      }

      .cls-2 {
        opacity: 0.57;
      }

      .cls-3 {
        fill: #fff;
      }

      .cls-4 {
        fill: url(#linear-gradient);
      }

      .cls-5 {
        fill: url(#linear-gradient-2);
      }

      .cls-6 {
        fill: url(#linear-gradient-3);
      }

      .cls-7 {
        fill: #f9fbfc;
      }

      .cls-8 {
        fill: url(#linear-gradient-4);
      }

      .cls-9 {
        fill: #d7dcf7;
      }

      .cls-10 {
        fill: url(#linear-gradient-5);
      }

      .cls-11 {
        fill: url(#linear-gradient-6);
      }

      .cls-12 {
        fill: #c38567;
      }

      .cls-13, .cls-26 {
        opacity: 0.21;
      }

      .cls-13 {
        fill: url(#linear-gradient-7);
      }

      .cls-14 {
        fill: #113c7a;
      }

      .cls-15 {
        fill: url(#linear-gradient-8);
      }

      .cls-16 {
        fill: #ac755a;
      }

      .cls-17 {
        fill: url(#linear-gradient-9);
      }

      .cls-18 {
        fill: url(#linear-gradient-10);
      }

      .cls-19 {
        fill: #843837;
      }

      .cls-20 {
        fill: #cfdae4;
      }

      .cls-21 {
        opacity: 0.67;
      }

      .cls-22 {
        opacity: 0.53;
      }

      .cls-23 {
        fill: url(#linear-gradient-11);
      }

      .cls-24 {
        opacity: 0.46;
      }

      .cls-25 {
        fill: url(#linear-gradient-12);
      }

      .cls-27 {
        fill: url(#linear-gradient-13);
      }

      .cls-28 {
        fill: #3a4371;
      }

      .cls-29 {
        fill: #de692e;
      }

      .cls-30 {
        fill: #f16722;
      }
    </style>
    <linearGradient id="linear-gradient" x1="-0.428" y1="2.412" x2="-0.219" y2="-0.333" gradientUnits="objectBoundingBox">
      <stop offset="0" stop-color="#1ae5ff"/>
      <stop offset="0.259" stop-color="#64e8f9"/>
      <stop offset="0.704" stop-color="#eaeeee"/>
    </linearGradient>
    <linearGradient id="linear-gradient-2" x1="-21.303" y1="0.497" x2="-20.316" y2="0.497" gradientUnits="objectBoundingBox">
      <stop offset="0" stop-color="#3a4371"/>
      <stop offset="1" stop-color="#313366"/>
    </linearGradient>
    <linearGradient id="linear-gradient-3" y1="0.5" x2="1" y2="0.5" gradientUnits="objectBoundingBox">
      <stop offset="0" stop-color="#f16722"/>
      <stop offset="0.242" stop-color="#f16722"/>
      <stop offset="0.595" stop-color="#f78952"/>
      <stop offset="0.94" stop-color="#fca579"/>
      <stop offset="1" stop-color="#ffd1ba"/>
    </linearGradient>
    <linearGradient id="linear-gradient-4" x1="0.38" y1="-0.689" x2="0.708" y2="2.554" xlink:href="#linear-gradient-2"/>
    <linearGradient id="linear-gradient-5" x1="0.499" y1="-0.431" x2="0.499" y2="1.426" gradientUnits="objectBoundingBox">
      <stop offset="0" stop-color="#313366"/>
      <stop offset="0.242" stop-color="#313366"/>
      <stop offset="0.595" stop-color="#3a4371"/>
      <stop offset="0.94" stop-color="#d7dcf7"/>
      <stop offset="1" stop-color="#d7dcf7"/>
    </linearGradient>
    <linearGradient id="linear-gradient-6" x1="24.902" y1="0.949" x2="27.082" y2="0.071" gradientUnits="objectBoundingBox">
      <stop offset="0" stop-color="#313366"/>
      <stop offset="0.259" stop-color="#64e8f9"/>
      <stop offset="0.704" stop-color="#eaeeee"/>
      <stop offset="1" stop-color="#eaeeee"/>
    </linearGradient>
    <linearGradient id="linear-gradient-7" x1="-1.327" y1="0.501" x2="-0.326" y2="0.501" xlink:href="#linear-gradient-2"/>
    <linearGradient id="linear-gradient-8" x1="10.357" y1="1.713" x2="10.152" y2="-0.715" gradientUnits="objectBoundingBox">
      <stop offset="0" stop-color="#313366"/>
      <stop offset="0.259" stop-color="#313366"/>
      <stop offset="0.704" stop-color="#d7dcf7"/>
      <stop offset="1" stop-color="#d7dcf7"/>
    </linearGradient>
    <linearGradient id="linear-gradient-9" x1="9.72" y1="3.319" x2="9.499" y2="-1.831" xlink:href="#linear-gradient-8"/>
    <linearGradient id="linear-gradient-10" x1="26.974" y1="2.199" x2="26.604" y2="0.04" xlink:href="#linear-gradient"/>
    <linearGradient id="linear-gradient-11" x1="0.39" y1="0.71" x2="1.312" y2="-1.047" gradientUnits="objectBoundingBox">
      <stop offset="0" stop-color="#ef6737"/>
      <stop offset="1" stop-color="#fb8e31"/>
    </linearGradient>
    <linearGradient id="linear-gradient-12" x1="5.322" y1="1.013" x2="5.942" y2="0.05" gradientUnits="objectBoundingBox">
      <stop offset="0" stop-color="#313366"/>
      <stop offset="1" stop-color="#fff"/>
    </linearGradient>
    <linearGradient id="linear-gradient-13" y1="0.5" x2="1.001" y2="0.5" gradientUnits="objectBoundingBox">
      <stop offset="0" stop-color="#d7dcf7"/>
      <stop offset="1" stop-color="#313366"/>
    </linearGradient>
  </defs>
  <g id="Group_8817" data-name="Group 8817">
    <path id="Path_2434" data-name="Path 2434" class="cls-1" d="M300,269.1a5.9,5.9,0,0,1,2.7,4.6c0,1.7-1.2,2.4-2.7,1.5l-24.3-14a5.9,5.9,0,0,1-2.7-4.6c0-1.7,1.2-2.4,2.7-1.5Z"/>
  </g>
  <g id="Group_8823" data-name="Group 8823">
    <g id="Group_8818" data-name="Group 8818" class="cls-2">
      <path id="Path_2435" data-name="Path 2435" class="cls-1" d="M2.9,116.1A6.439,6.439,0,0,0,0,121.2l.2,69c0,4.4,3.1,6.2,6.9,4l41.1-23.7a6.439,6.439,0,0,0,2.9-5.1l-.2-69c0-4.4-3.1-6.2-6.9-4Z"/>
    </g>
    <g id="Group_8822" data-name="Group 8822">
      <g id="Group_8821" data-name="Group 8821">
        <g id="Group_8819" data-name="Group 8819">
          <path id="Path_2436" data-name="Path 2436" class="cls-3" d="M9.2,141.1a2.016,2.016,0,0,0-.9,1.5v3.7c0,.6.4.8.9.5l33.5-19.4a2.016,2.016,0,0,0,.9-1.5v-3.7c0-.6-.4-.8-.9-.5Z"/>
        </g>
        <g id="Group_8820" data-name="Group 8820">
          <path id="Path_2437" data-name="Path 2437" class="cls-3" d="M9.3,149.1a2.016,2.016,0,0,0-.9,1.5v3.7c0,.6.4.8.9.5l33.5-19.4a1.859,1.859,0,0,0,.9-1.5v-3.7c0-.6-.4-.8-.9-.5Z"/>
        </g>
      </g>
      <path id="Path_2438" data-name="Path 2438" class="cls-1" d="M22.3,155a4.857,4.857,0,0,0-2.1,3.6v.8c0,1.3.9,1.8,2.1,1.2l10.8-6.3a4.857,4.857,0,0,0,2.1-3.6v-.8c0-1.3-.9-1.8-2.1-1.2Z"/>
    </g>
  </g>
  <g id="Group_8827" data-name="Group 8827">
    <path id="Path_2439" data-name="Path 2439" class="cls-4" d="M145,1.4c-.1-.1-.2-.1-.3-.2a.758.758,0,0,0-.4-.2c-.1-.1-.3-.1-.4-.2s-.3-.1-.4-.2-.3-.1-.4-.2H143c-.1,0-.2-.1-.3-.1s-.3-.1-.4-.1-.3-.1-.4-.1c-.2,0-.3-.1-.5-.1H140a1.268,1.268,0,0,0-.6.1h0a1.854,1.854,0,0,0-.7.2,2.01,2.01,0,0,0-.8.4l-6.9,4a4.714,4.714,0,0,1,1.5-.6h0a9.15,9.15,0,0,1,1.7-.1h0a16.247,16.247,0,0,1,1.9.4h0a6.7,6.7,0,0,1,2.1,1L325.7,114l6.9-4Z"/>
    <path id="Path_2440" data-name="Path 2440" class="cls-5" d="M346.9,129.5v-1a2332291823720.029,2332291823720.029,0,0,0-.2-1h0c0-.2-.1-.3-.1-.5a4664583647440.261,4664583647440.261,0,0,1-.3-1.5c0-.1-.1-.3-.1-.4h0V125c-.1-.2-.1-.4-.2-.5-.1-.2-.1-.4-.2-.5-.1-.2-.1-.3-.2-.5s-.1-.3-.2-.5c-.1-.1-.1-.3-.2-.4h0v-.1c-.1-.2-.2-.3-.2-.5a2.187,2.187,0,0,0-.3-.5l-.3-.6a5.739,5.739,0,0,0-.4-.7.1.1,0,0,0-.1-.1l-.1-.1a8.343,8.343,0,0,0-.8-1.2,5.5,5.5,0,0,0-.7-.9c-.2-.2-.3-.4-.5-.6-.1-.2-.3-.3-.4-.5s-.3-.3-.4-.5-.3-.3-.4-.4l-.1-.1h0l-.3-.3-.4-.4c-.2-.1-.3-.3-.5-.4s-.3-.3-.5-.4c-.1-.1-.2-.1-.2-.2h-.1c-.1,0-.1-.1-.2-.1-.2-.1-.3-.2-.5-.3a2.186,2.186,0,0,0-.5-.3c-.1-.1-.3-.2-.4-.3s-.3-.2-.4-.3a.1.1,0,0,1-.1-.1l-6.9,4c.7.4,1.4.9,2.1,1.4h.1a10.708,10.708,0,0,1,1.9,1.8h0a23.621,23.621,0,0,1,3.2,4.4.1.1,0,0,0,.1.1c.4.8.9,1.6,1.2,2.4h0a12.536,12.536,0,0,1,.9,2.5h0a12.214,12.214,0,0,1,.6,2.6h0a22.855,22.855,0,0,1,.2,2.5l-.4,130.9a14.978,14.978,0,0,1-.2,2.2v.1a4.779,4.779,0,0,1-.6,1.8h0a5.026,5.026,0,0,1-.8,1.2,1.38,1.38,0,0,0-.3.4,3.126,3.126,0,0,1-1.1.9l6.9-4a4.812,4.812,0,0,0,1.1-.9,1.38,1.38,0,0,0,.3-.4c.1-.2.3-.3.4-.5s.3-.5.4-.7h0c.1-.2.2-.3.2-.5.1-.2.1-.4.2-.5a.9.9,0,0,0,.1-.5v-.5c0-.2.1-.3.1-.5a.9.9,0,0,1,.1-.5v-1h0l.4-130.9A2.482,2.482,0,0,0,346.9,129.5Z"/>
    <g id="Group_8824" data-name="Group 8824">
      <path id="Path_2441" data-name="Path 2441" class="cls-6" d="M329.8,116c5.7,3.3,10.3,11.3,10.3,17.9l-.4,130.9c0,6.6-4.7,9.2-10.4,5.9L137.7,160.1c-5.7-3.3-10.3-11.3-10.3-17.9l.4-130.9c0-6.6,4.7-9.2,10.4-5.9Z"/>
    </g>
    <g id="Group_8825" data-name="Group 8825">
      <path id="Path_2442" data-name="Path 2442" class="cls-7" d="M317.9,115.8c5.3,3,9.5,10.4,9.5,16.4l-.3,120.4c0,6-4.3,8.5-9.5,5.4L150.5,161.6c-5.3-3-9.5-10.4-9.5-16.4l.3-120.4c0-6,4.3-8.5,9.5-5.4Z"/>
    </g>
    <path id="Path_2443" data-name="Path 2443" class="cls-7" d="M332.8,220.4h0a1.367,1.367,0,0,1-1.4-1.4V177a1.367,1.367,0,0,1,1.4-1.4h0a1.367,1.367,0,0,1,1.4,1.4v42A1.43,1.43,0,0,1,332.8,220.4Z"/>
    <g id="Group_8826" data-name="Group 8826">
      <path id="Path_2444" data-name="Path 2444" class="cls-3" d="M133.9,86.1a6.541,6.541,0,0,1,3,5.1c0,1.9-1.3,2.6-3,1.7a6.541,6.541,0,0,1-3-5.1C130.9,85.9,132.3,85.1,133.9,86.1Z"/>
    </g>
  </g>
  <g id="Group_8831" data-name="Group 8831">
    <path id="Path_2445" data-name="Path 2445" class="cls-8" d="M248.8,103.8a32.137,32.137,0,0,1,1.1,5.2c.1,1,.2,2,.2,3v1a2.2,2.2,0,0,1-.1.8v.2c0,.3-.1.5-.1.8a2.485,2.485,0,0,0-.1.8c-.1.3-.1.6-.2.8v.1c-.1.2-.1.5-.2.7v.1a1.445,1.445,0,0,0-.2.7,22064236629371.79,22064236629371.79,0,0,1-.6,1.4.1.1,0,0,1-.1.1,2.186,2.186,0,0,1-.3.5.1.1,0,0,1-.1.1,1,1,0,0,1-.4.5c-.1.2-.3.3-.4.5l-.1.1-.4.4-.1.1-.4.4-.1.1a2.186,2.186,0,0,1-.5.3,2.186,2.186,0,0,0-.5.3.1.1,0,0,0-.1.1c-.2.1-.3.2-.5.3h-.1c-.2.1-.3.2-.5.2a.367.367,0,0,1-.3.1c-.1-6.4-4.5-14.1-10.1-17.3s-10.1-.6-10.2,5.8c0,0,.2.3.5.7-.1-.2-.3-.4-.4-.6a7.016,7.016,0,0,0-.6-.9l-.1-.1a3.509,3.509,0,0,1-.5-.8c0-.1-.1-.1-.1-.2-.2-.3-.3-.6-.5-.9s-.3-.6-.5-.9c0-.1-.1-.1-.1-.2-.2-.3-.3-.6-.5-.9,0-.1-.1-.1-.1-.2a5.94,5.94,0,0,0-.4-.8,6.894,6.894,0,0,1-.4-1c0-.1-.1-.1-.1-.2-.1-.3-.3-.6-.4-.9a6.894,6.894,0,0,1-.4-1,.1.1,0,0,0-.1-.1l-.3-.9c0-.1,0-.1-.1-.2-.2-.6-.4-1.2-.6-1.9v-.2a2.92,2.92,0,0,1-.2-.9v-.2c-.1-.3-.1-.6-.2-.9-.1-.4-.1-.7-.2-1v-.2c0-.3-.1-.6-.1-.9,0-.4-.1-.7-.1-.9v-.2a2.768,2.768,0,0,0-.1-.9V92.6a24.585,24.585,0,0,1,.2-2.8,13.807,13.807,0,0,1,1.1-3.9,4.875,4.875,0,0,0,.3-.7c2.7-4.8,8.4-6,15-2.2,5.9,3.4,11.1,10,14,17,.2.5.4.9.6,1.4A22.255,22.255,0,0,1,248.8,103.8Zm-15,.5c3.4,2,6.2.4,6.2-3.5a13.551,13.551,0,0,0-6.2-10.7c-3.4-2-6.2-.4-6.2,3.5a13.936,13.936,0,0,0,6.2,10.7"/>
    <g id="Group_8830" data-name="Group 8830">
      <g id="Group_8828" data-name="Group 8828">
        <path id="Path_2446" data-name="Path 2446" class="cls-9" d="M274.8,156.3a4.937,4.937,0,0,1,2.3,4V170c0,1.5-1,2.1-2.3,1.3l-89-51.4a4.937,4.937,0,0,1-2.3-4v-9.7c0-1.5,1-2.1,2.3-1.3Z"/>
      </g>
      <g id="Group_8829" data-name="Group 8829">
        <path id="Path_2447" data-name="Path 2447" class="cls-9" d="M274.8,177.5a4.937,4.937,0,0,1,2.3,4v9.7c0,1.5-1,2.1-2.3,1.3l-89-51.4a4.937,4.937,0,0,1-2.3-4v-9.7c0-1.5,1-2.1,2.3-1.3Z"/>
      </g>
    </g>
  </g>
  <path id="Path_2448" data-name="Path 2448" class="cls-10" d="M235.1,181.7a9.488,9.488,0,0,1,4.3,7.5V191c0,2.7-1.9,3.9-4.3,2.5l-22.6-13.1a9.488,9.488,0,0,1-4.3-7.5v-1.8c0-2.7,2-3.8,4.3-2.5Z"/>
  <g id="Group_8834" data-name="Group 8834">
    <path id="Path_2449" data-name="Path 2449" class="cls-11" d="M153,180.5s-7.7,4.4-8.9,24.7c1,3.7,6.9,5.7,11.4,2.8C160.1,204.9,155.4,183.9,153,180.5Z"/>
    <path id="Path_2450" data-name="Path 2450" class="cls-12" d="M192.1,202.3s17.6-7.8,19.9-9.2c2.4-1.3,4.1-6.2,5-7.2s4.9-3.4,4.7-2.4c-.1,1-2.2,3-2.2,3a16.937,16.937,0,0,1,1.8,4.1c.3,1.6-1.9,4.9-3.1,5.8a10.631,10.631,0,0,1-4,1.2s-14.3,9.6-16.7,9.8C195.2,207.5,191.8,206.1,192.1,202.3Z"/>
    <ellipse id="Ellipse_63" data-name="Ellipse 63" class="cls-13" cx="35.5" cy="21.1" rx="35.5" ry="21.1" transform="translate(135.5 281.5)"/>
    <path id="Path_2451" data-name="Path 2451" d="M156.3,298.1s-.5,3.3.2,4.7a3.437,3.437,0,0,0,4.7.9,43.753,43.753,0,0,0,4.6-4.3s4.9-2.6,5.3-4c.5-1.4-1.2-2.6-2.6-2.3s-5.3,2.7-7.2,2.7S156.9,296.4,156.3,298.1Z"/>
    <path id="Path_2452" data-name="Path 2452" class="cls-14" d="M151.3,226.8s4.3,70.3,4.8,72.3,6.1,3.2,7.1,0c.7-2.1,2.3-67.1,2.3-67.1Z"/>
    <path id="Path_2453" data-name="Path 2453" d="M170.4,302.3a1.235,1.235,0,0,0-.4.8c0,1,0,3.1.6,4a4.082,4.082,0,0,0,5.3,1c2-1.1,8-5.6,9.3-6.6a3.729,3.729,0,0,0,1.2-1.9,1.145,1.145,0,0,0-.6-1.3,4.819,4.819,0,0,0-3.6-.4c-2,.7-4.5,2.9-7.3,2.7A6.1,6.1,0,0,0,170.4,302.3Z"/>
    <path id="Path_2454" data-name="Path 2454" class="cls-14" d="M179.8,227.6c-.3-2.9-3.8-3.9-7-2.9-6.1-.3-15.7-.1-16,4.7-.5,7.1,2.8,12.1,6,15.5,2.4,2.5,3.9,7.4,4.6,9.7.6,18.6,1.8,44.9,2.6,47.5,1.2,4.1,7.4,3.9,7.6-.1C178.8,288.7,179.8,227.6,179.8,227.6Z"/>
    <path id="Path_2455" data-name="Path 2455" class="cls-15" d="M179.8,229.8c-.7,3.6-11,5.4-17,4.4s-12.5-3.9-12.3-10.9c0,0-.9-27.9-.9-33.3a16.064,16.064,0,0,1,3.4-9.5s3.4-3.8,13.9-1.7c0,0,8.6,1.9,12.6,8.3,0,0,2.7,7,1.8,21.6C180.5,223.3,179.8,229.8,179.8,229.8Z"/>
    <path id="Path_2456" data-name="Path 2456" class="cls-16" d="M158.7,171s.9,5.3,0,7.8c-.2,1.2,5.2,5.3,9.9,4.3,2.7-.6,2.6-2,2.6-2s-2.3-3.8-2-7.5C169.5,170,161.9,170.3,158.7,171Z"/>
    <g id="Group_8832" data-name="Group 8832">
      <path id="Path_2457" data-name="Path 2457" class="cls-12" d="M176.5,160.3a12.6,12.6,0,1,1-12.6-12.6A12.611,12.611,0,0,1,176.5,160.3Z"/>
      <path id="Path_2458" data-name="Path 2458" class="cls-12" d="M176.5,161.1s.2,12.6-2.6,15.1c-2.7,2.5-6.9-2.4-13.7-4-6.7-1.7,5.5-14.8,5.5-14.8Z"/>
    </g>
    <g id="Group_8833" data-name="Group 8833">
      <path id="Path_2459" data-name="Path 2459" class="cls-17" d="M175.5,184.1s2.8-.8,5.9,3.7,7.7,10.4,9.8,11.4c2.2,1,5.1-1,6.3-1s4.3,5.5,3.1,8.3-8.8,4.1-10.8,4.1-14.7-7.7-16.5-12C171.6,194.3,168.8,184.3,175.5,184.1Z"/>
      <path id="Path_2460" data-name="Path 2460" class="cls-18" d="M195.7,198.8a4.007,4.007,0,0,1,3.5-2.4c2.8-.2,5.9,5.1,5.7,8.1-.2,2.9-4.5,4.5-5.5,3.7C198.5,207.5,200.5,205.5,195.7,198.8Z"/>
    </g>
    <path id="Path_2461" data-name="Path 2461" class="cls-19" d="M171.5,149.7s4.5,1,5.9,7.9c-.6,2.9-4.7.6-6.3,4.5a22.135,22.135,0,0,1-2.6,5.1l-1-.4s0-3.1-1.4-3.1-1.8,3.7-1,5.3a5.915,5.915,0,0,0,2.6,2.4s-2,3.3-2.9,3.7c-1,.4-4.5-.4-5.9-1s-3.9-3.3-5.9-6.5c-2-3.1-3.7-8.6-2.6-12.4a7.334,7.334,0,0,1,3.9-4.7,9.617,9.617,0,0,1,4.3-3.1A13.884,13.884,0,0,1,171.5,149.7Z"/>
    <path id="Path_2462" data-name="Path 2462" class="cls-20" d="M173.6,181.4l-3.3-1.8s-8.4-.8-11.4-2.8l-1.6,2.2a9.539,9.539,0,0,0,7.5,4.6c5.4.5,7.9-1.6,7.9-1.6Z"/>
  </g>
  <g id="Group_8839" data-name="Group 8839" class="cls-21">
    <g id="Group_8835" data-name="Group 8835">
      <path id="Path_2463" data-name="Path 2463" class="cls-1" d="M321.4,81.8v3.7a2.78,2.78,0,0,1-4.2,2.4L299.8,77.8a2.693,2.693,0,0,1-1.4-2.4V71.7a2.78,2.78,0,0,1,4.2-2.4L320,79.4A2.906,2.906,0,0,1,321.4,81.8Z"/>
    </g>
    <g id="Group_8836" data-name="Group 8836">
      <path id="Path_2464" data-name="Path 2464" class="cls-1" d="M376.3,131.8v3.7a2.78,2.78,0,0,1-4.2,2.4L299.8,96.1a2.693,2.693,0,0,1-1.4-2.4V90a2.78,2.78,0,0,1,4.2-2.4l72.3,41.8A2.693,2.693,0,0,1,376.3,131.8Z"/>
    </g>
    <g id="Group_8837" data-name="Group 8837" class="cls-22">
      <path id="Path_2465" data-name="Path 2465" class="cls-1" d="M346.4,151.2v3.7a2.78,2.78,0,0,1-4.2,2.4l-42.5-24.5a2.693,2.693,0,0,1-1.4-2.4v-3.7a2.78,2.78,0,0,1,4.2-2.4L345,148.8A2.906,2.906,0,0,1,346.4,151.2Z"/>
    </g>
    <g id="Group_8838" data-name="Group 8838">
      <path id="Path_2466" data-name="Path 2466" class="cls-1" d="M365,143.7v3.7a2.78,2.78,0,0,1-4.2,2.4l-61.1-35.3a2.693,2.693,0,0,1-1.4-2.4v-3.7a2.78,2.78,0,0,1,4.2-2.4l61.1,35.3A2.486,2.486,0,0,1,365,143.7Z"/>
    </g>
  </g>
  <g id="Group_8844" data-name="Group 8844" class="cls-21">
    <g id="Group_8840" data-name="Group 8840">
      <path id="Path_2467" data-name="Path 2467" class="cls-1" d="M31.2,55.6v1.9a1.508,1.508,0,0,0,2.2,1.3l8.9-5.2a1.561,1.561,0,0,0,.7-1.3V50.4a1.508,1.508,0,0,0-2.2-1.3l-8.9,5.2A1.561,1.561,0,0,0,31.2,55.6Z"/>
    </g>
    <g id="Group_8841" data-name="Group 8841">
      <path id="Path_2468" data-name="Path 2468" class="cls-1" d="M2.9,81.3v1.9a1.508,1.508,0,0,0,2.2,1.3L42.3,63a1.357,1.357,0,0,0,.7-1.3V59.8a1.508,1.508,0,0,0-2.2-1.3L3.7,80A1.561,1.561,0,0,0,2.9,81.3Z"/>
    </g>
    <g id="Group_8842" data-name="Group 8842" class="cls-22">
      <path id="Path_2469" data-name="Path 2469" class="cls-1" d="M18.3,91.3v1.9a1.508,1.508,0,0,0,2.2,1.3L42.4,81.9a1.357,1.357,0,0,0,.7-1.3V78.7a1.508,1.508,0,0,0-2.2-1.3L19.1,90A1.561,1.561,0,0,0,18.3,91.3Z"/>
    </g>
    <g id="Group_8843" data-name="Group 8843">
      <path id="Path_2470" data-name="Path 2470" class="cls-1" d="M8.7,87.4v1.9a1.508,1.508,0,0,0,2.2,1.3L42.3,72.4a1.357,1.357,0,0,0,.7-1.3V69.2a1.508,1.508,0,0,0-2.2-1.3L9.5,86.1A1.561,1.561,0,0,0,8.7,87.4Z"/>
    </g>
  </g>
  <g id="Group_8845" data-name="Group 8845">
    <path id="Path_2471" data-name="Path 2471" class="cls-23" d="M180.7,122.2a15,15,0,1,1-15-15A14.98,14.98,0,0,1,180.7,122.2Z"/>
    <path id="Path_2472" data-name="Path 2472" class="cls-3" d="M164.4,129.1l-6.2-4.6,2.2-3.1,3.3,2.4,6.6-8.4,3,2.4Z"/>
  </g>
  <g id="Group_8846" data-name="Group 8846" class="cls-24">
    <path id="Path_2473" data-name="Path 2473" class="cls-1" d="M146.2,55.8a14.174,14.174,0,0,1,6.4,11.1c0,4.1-2.9,5.7-6.4,3.7L87.9,36.9a14.174,14.174,0,0,1-6.4-11.1c0-4.1,2.9-5.7,6.4-3.7Z"/>
  </g>
  <g id="Group_8847" data-name="Group 8847" class="cls-24">
    <path id="Path_2474" data-name="Path 2474" class="cls-1" d="M367,233.8a9.687,9.687,0,0,1,4.4,7.7c0,2.8-2,4-4.5,2.6l-40.5-23.4A9.687,9.687,0,0,1,322,213c0-2.8,2-4,4.5-2.5Z"/>
  </g>
  <g id="Group_8848" data-name="Group 8848">
    <path id="Path_2475" data-name="Path 2475" class="cls-25" d="M87.9,191.7c1.5.9,1.5,2.3,0,3.1L38.2,223.7a5.738,5.738,0,0,1-5.4,0L2,206c-1.5-.9-1.5-2.3,0-3.1L51.8,174a5.738,5.738,0,0,1,5.4,0Z"/>
  </g>
  <g id="Group_8855" data-name="Group 8855">
    <g id="Group_8849" data-name="Group 8849" class="cls-26">
      <path id="Path_2476" data-name="Path 2476" class="cls-27" d="M55.1,259.5c-14.3,8.3-14.4,21.6-.2,29.9s37.3,8.3,51.6,0,14.4-21.6.2-29.9S69.4,251.2,55.1,259.5Z"/>
    </g>
    <g id="Group_8854" data-name="Group 8854">
      <path id="Path_2477" data-name="Path 2477" d="M72.5,278.3s-6.6,1.7-9.1,1.7c-2.6,0,0,2.6,4.3,2.9s8.3.6,9.1-.6c.9-1.1-.2-4.4-.2-4.4Z"/>
      <path id="Path_2478" data-name="Path 2478" d="M90.8,272.3s-6.6,1.7-9.1,1.7c-2.6,0,0,2.6,4.3,2.9s8.3.6,9.1-.6c.9-1.1-.2-4.4-.2-4.4Z"/>
      <path id="Path_2479" data-name="Path 2479" class="cls-28" d="M92.2,201.3s2.4,65.4,2.8,72.2a4.965,4.965,0,0,1-4.2.8s-7.7-42.9-8.9-53.9c-1.1-11.1-3-14.9-3-14.9Z"/>
      <path id="Path_2480" data-name="Path 2480" class="cls-28" d="M67.8,205.1s-2.3,37.7,4.6,74.3c0,0,2.3,1.1,4.2-1.5,0,0,4.2-64,5.3-73.2C83.1,195.6,70.9,203.2,67.8,205.1Z"/>
      <path id="Path_2481" data-name="Path 2481" class="cls-28" d="M78.1,234.1s3.8-10.7,7.2-16.4S88,203.6,88,203.6l-13,1.1Z"/>
      <path id="Path_2482" data-name="Path 2482" class="cls-12" d="M64.9,167.8l-11.3-5.5s-3.4-3.4-4.3-4.1-6.5-2.1-7.6-1.9c-1,.2-2.9,1.7-2.4,2.1.5.3,5.3,2.9,5.5,3.9s-1.7,2.4-1,3.1,2.2-.7,3.3-.7a16.515,16.515,0,0,1,3.9,1.4l11,6.4Z"/>
      <g id="Group_8850" data-name="Group 8850">
        <path id="Path_2483" data-name="Path 2483" class="cls-29" d="M89.1,156.8s-2.1-2.3-5.5,2.1-6.3,10.9-11.1,10.3-12.6-4.4-12.6-4.4-3.4,2.3-2.9,5.7c0,0,11.1,8.2,18.5,7.8s15.4-8,17.2-13.3C94.4,159.7,89.1,156.8,89.1,156.8Z"/>
      </g>
      <path id="Path_2484" data-name="Path 2484" class="cls-30" d="M66.2,205c.7,3.4,10.4,5.1,16.1,4.2s11.8-3.7,11.6-10.3c0,0,.9-26.4.9-31.6a15.061,15.061,0,0,0-3.3-9s-3.2-3.6-13.2-1.6c0,0-8.2,1.8-11.9,7.8,0,0-2.6,6.6-1.7,20.5C65.5,198.9,66.2,205,66.2,205Z"/>
      <path id="Path_2485" data-name="Path 2485" class="cls-16" d="M86.1,149.4s-.9,5,0,7.4c.1,1.2-4.9,5-9.4,4-2.6-.6-2.5-1.9-2.5-1.9s2.2-3.6,1.9-7.1C75.9,148.4,83.1,148.7,86.1,149.4Z"/>
      <g id="Group_8851" data-name="Group 8851">
        <path id="Path_2486" data-name="Path 2486" class="cls-12" d="M69.3,139.2a11.85,11.85,0,1,0,11.8-11.9A11.865,11.865,0,0,0,69.3,139.2Z"/>
        <path id="Path_2487" data-name="Path 2487" class="cls-12" d="M69.3,140s-.1,11.9,2.5,14.3,6.6-2.3,13-3.7c6.4-1.6-5.2-14-5.2-14Z"/>
      </g>
      <g id="Group_8852" data-name="Group 8852">
        <path id="Path_2488" data-name="Path 2488" class="cls-12" d="M54.5,179s-16.7-7.4-18.9-8.7-3.9-5.9-4.8-6.9c-.8-1-4.6-3.2-4.5-2.2s2.1,2.8,2.1,2.8a17.378,17.378,0,0,0-1.7,3.9c-.3,1.5,1.8,4.6,2.9,5.5a10.711,10.711,0,0,0,3.8,1.1s13.6,9.1,15.8,9.2C51.6,183.9,54.8,182.7,54.5,179Z"/>
        <path id="Path_2489" data-name="Path 2489" class="cls-29" d="M69.4,164s-2.1-2.3-5.5,2.1S57.6,177,52.8,176.4,40.2,172,40.2,172s-3.4,2.3-2.9,5.7c0,0,11.1,8.2,18.5,7.8s15.4-8,17.2-13.3C74.7,166.8,69.4,164,69.4,164Z"/>
      </g>
      <g id="Group_8853" data-name="Group 8853">
        <path id="Path_2490" data-name="Path 2490" class="cls-19" d="M74,129.2s-4.3.9-5.6,7.4c.6,2.8,4.5.6,6,4.3a21.289,21.289,0,0,0,2.4,4.8l.9-.4s0-3,1.3-3,1.7,3.5.9,5a5.042,5.042,0,0,1-2.4,2.2s1.9,3.2,2.8,3.5c.9.4,4.3-.4,5.6-.9,1.3-.6,3.7-3.2,5.6-6.1,1.9-3,3.5-8.2,2.4-11.7a7.032,7.032,0,0,0-3.7-4.5,10.139,10.139,0,0,0-4.1-3A13.66,13.66,0,0,0,74,129.2Z"/>
        <path id="Path_2491" data-name="Path 2491" class="cls-19" d="M73.1,137.1a9.171,9.171,0,0,1,1.4,8.3c-1.4,4.9.6,4.9,2.6,11.2s-3.7,13.7,1.7,22.9c5.4,9.1,20,8,26.6-1.1s-3.7-15.7-4-24,6.3-13.2-1.1-18.9-10.6-12-19.7-9.4C71.4,128.5,69.1,133.1,73.1,137.1Z"/>
      </g>
    </g>
  </g>
</svg>
