<svg id="Group_8400" data-name="Group 8400" xmlns="http://www.w3.org/2000/svg" width="149.376" height="45.873" viewBox="0 0 149.376 45.873">
  <defs>
    <style>
      .cls-1, .cls-3 {
        fill: #fff;
      }

      .cls-2, .cls-6 {
        fill: #5778bd;
      }

      .cls-3 {
        font-size: 14px;
        font-family: Roboto-Medium, Roboto;
        font-weight: 500;
      }

      .cls-4 {
        fill: #475993;
      }

      .cls-5, .cls-6 {
        stroke: none;
      }
    </style>
  </defs>
  <g id="Path_473" data-name="Path 473" class="cls-1">
    <path class="cls-5" d="M 147.5087585449219 45.37260818481445 L 1.867213010787964 45.37260818481445 C 1.296313047409058 45.37260818481445 0.4999930262565613 44.10852813720703 0.4999930262565613 42.04988861083984 L 0.4999930262565613 3.822727918624878 C 0.4999930262565613 1.764087915420532 1.296313047409058 0.5000079274177551 1.867213010787964 0.5000079274177551 L 147.5087585449219 0.5000079274177551 C 148.0796508789062 0.5000079274177551 148.8759460449219 1.764087915420532 148.8759460449219 3.822727918624878 L 148.8759460449219 42.04988861083984 C 148.8759460449219 44.10852813720703 148.0796508789062 45.37260818481445 147.5087585449219 45.37260818481445 Z"/>
    <path class="cls-6" d="M 1.876861572265625 1.000007629394531 C 1.819854736328125 1.022201538085938 1.599166870117188 1.188655853271484 1.380569458007812 1.700607299804688 C 1.135147094726562 2.275348663330078 1 3.029006958007812 1 3.822727203369141 L 1 42.04988861083984 C 1 42.84360885620117 1.135147094726562 43.59726715087891 1.380569458007812 44.1720085144043 C 1.599166870117188 44.6839599609375 1.819854736328125 44.85041427612305 1.876861572265625 44.87260818481445 L 147.4990692138672 44.87260818481445 C 147.5560913085938 44.85041427612305 147.7767639160156 44.6839599609375 147.9953765869141 44.1720085144043 C 148.2407989501953 43.59726715087891 148.3759460449219 42.84360885620117 148.3759460449219 42.04988861083984 L 148.3759460449219 3.822727203369141 C 148.3759460449219 3.029006958007812 148.2407989501953 2.275348663330078 147.9953765869141 1.700607299804688 C 147.7767639160156 1.188655853271484 147.5560913085938 1.022201538085938 147.4990692138672 1.000007629394531 L 1.876861572265625 1.000007629394531 M 1.8671875 7.62939453125e-06 L 147.5087280273438 7.62939453125e-06 C 148.5399475097656 7.62939453125e-06 149.3759460449219 1.71148681640625 149.3759460449219 3.822727203369141 L 149.3759460449219 42.04988861083984 C 149.3759460449219 44.16112899780273 148.5399475097656 45.87260818481445 147.5087280273438 45.87260818481445 L 1.8671875 45.87260818481445 C 0.835968017578125 45.87260818481445 0 44.16112899780273 0 42.04988861083984 L 0 3.822727203369141 C 0 1.71148681640625 0.835968017578125 7.62939453125e-06 1.8671875 7.62939453125e-06 Z"/>
  </g>
  <path id="Path_472" data-name="Path 472" class="cls-2" d="M1.294,0H102.2c.714,0,1.294,1.711,1.294,3.823V42.05c0,2.111-.579,3.823-1.294,3.823H1.294C.579,45.873,0,44.161,0,42.05V3.823C0,1.711.579,0,1.294,0Z" transform="translate(45.887)"/>
  <text id="Facebook" class="cls-3" transform="translate(92.159 29.26)"><tspan x="-30.635" y="0">Facebook</tspan></text>
  <path id="facebook-2" data-name="facebook" class="cls-4" d="M23.635,0H3.683A3.715,3.715,0,0,0,0,3.749V24.072a3.715,3.715,0,0,0,3.681,3.749h9.84l.017-9.942H11a.6.6,0,0,1-.6-.607l-.012-3.2a.6.6,0,0,1,.6-.612h2.531v-3.1c0-3.593,2.155-5.55,5.3-5.55h2.582a.6.6,0,0,1,.6.609v2.7a.6.6,0,0,1-.6.609H19.823c-1.712,0-2.043.828-2.043,2.044v2.681h3.761a.605.605,0,0,1,.594.681l-.373,3.2a.6.6,0,0,1-.594.538H17.8l-.017,9.942h5.855a3.715,3.715,0,0,0,3.681-3.749V3.749A3.715,3.715,0,0,0,23.635,0Z" transform="translate(10.833 9.311)"/>
</svg>
