<svg xmlns="http://www.w3.org/2000/svg" width="36" height="36" viewBox="0 0 36 36">
  <defs>
    <style>
      .cls-1 {
        fill: #fff;
        stroke: #f16722;
        stroke-width: 2px;
      }

      .cls-2 {
        fill: #ebebeb;
      }

      .cls-3 {
        fill: #eae9e9;
      }

      .cls-4 {
        fill: #ffa172;
      }

      .cls-5 {
        fill: #f16722;
      }

      .cls-6 {
        stroke: none;
      }

      .cls-7 {
        fill: none;
      }
    </style>
  </defs>
  <g id="Group_9226" data-name="Group 9226" transform="translate(-384 -1232)">
    <g id="Group_9225" data-name="Group 9225" transform="translate(-416 436)">
      <g id="Group_9223" data-name="Group 9223" transform="translate(413 16)">
        <g id="Ellipse_84" data-name="Ellipse 84" class="cls-1" transform="translate(387 780)">
          <circle class="cls-6" cx="18" cy="18" r="18"/>
          <circle class="cls-7" cx="18" cy="18" r="17"/>
        </g>
      </g>
    </g>
    <g id="honor_3_" data-name="honor (3)" transform="translate(394.866 1238)">
      <path id="Path_2758" data-name="Path 2758" class="cls-2" d="M37.678,233.553v5.766a.377.377,0,0,1-.491.358l-.672-.211-2.679-.834.121.392.925,2.959a.377.377,0,0,1-.358.49H28.756a.377.377,0,0,1-.358-.49l1.045-3.351-1.253.392-2.1.653a.371.371,0,0,1-.46-.211.381.381,0,0,1-.03-.147v-5.766a.381.381,0,0,1,.03-.147.371.371,0,0,1,.46-.211l2.1.653,1.253.392L28.4,230.889a.377.377,0,0,1,.358-.491h5.766a.377.377,0,0,1,.358.491l-.925,2.959-.121.392,2.679-.834.672-.211a.377.377,0,0,1,.491.358Zm0,0" transform="translate(-24.469 -220.209)"/>
      <path id="Path_2759" data-name="Path 2759" class="cls-3" d="M36.546,233.553v5.766a.378.378,0,0,1-.03.147.371.371,0,0,1-.46.211l-2.1-.653-1.253-.392,1.045,3.351a.377.377,0,0,1-.359.49H28.756a.377.377,0,0,1-.358-.49l1.045-3.351-1.253.392.121-.392-2.68.834a.381.381,0,0,1-.03-.147v-5.766a.381.381,0,0,1,.03-.147l2.68.834-.121-.392,1.253.392L28.4,230.889a.377.377,0,0,1,.358-.491h4.634a.377.377,0,0,1,.359.491L32.7,234.24l1.253-.392,2.1-.653a.371.371,0,0,1,.46.211A.378.378,0,0,1,36.546,233.553Zm0,0" transform="translate(-24.469 -220.209)"/>
      <path id="Path_2760" data-name="Path 2760" class="cls-2" d="M63.124,273.076l1.139-2.88,1.139,2.88a.377.377,0,0,1-.351.516H63.474a.377.377,0,0,1-.351-.516Zm2.271-4.012,2.88-1.139a.377.377,0,0,1,.516.351v1.577a.378.378,0,0,1-.516.351Zm-5.145-1.139,2.88,1.139-2.88,1.139a.377.377,0,0,1-.516-.351v-1.577a.377.377,0,0,1,.516-.351Zm3.224-3.389h1.578a.377.377,0,0,1,.351.516l-1.139,2.88-1.139-2.88a.377.377,0,0,1,.351-.516Zm0,0" transform="translate(-57.093 -252.836)"/>
      <path id="Path_2761" data-name="Path 2761" class="cls-4" d="M8.912,8.535H21.743a.377.377,0,0,1,.377.377v3.4a.755.755,0,0,1-.755.755H9.29a.755.755,0,0,1-.755-.755v-3.4A.377.377,0,0,1,8.912,8.535Zm0,0" transform="translate(-8.158 -8.158)"/>
      <path id="Path_2762" data-name="Path 2762" class="cls-5" d="M8.912,8.535H20.234a.377.377,0,0,1,.377.377v3.4a.755.755,0,0,1-.755.755H9.29a.755.755,0,0,1-.755-.755v-3.4A.377.377,0,0,1,8.912,8.535Zm0,0" transform="translate(-8.158 -8.158)"/>
      <path id="Path_2763" data-name="Path 2763" class="cls-2" d="M22.121,76.8v.755a.757.757,0,0,1-.755.755H9.29a.757.757,0,0,1-.755-.755V76.8Zm0,0" transform="translate(-8.158 -73.404)"/>
      <g id="Group_9183" data-name="Group 9183" transform="translate(1.509 3.396)">
        <path id="Path_2764" data-name="Path 2764" d="M153.6,76.8h.755V78.31H153.6Zm0,0" transform="translate(-148.318 -76.801)"/>
        <path id="Path_2765" data-name="Path 2765" d="M102.4,76.8h.755V78.31H102.4Zm0,0" transform="translate(-99.379 -76.801)"/>
        <path id="Path_2766" data-name="Path 2766" d="M68.266,76.8h.755V78.31h-.755Zm0,0" transform="translate(-66.756 -76.801)"/>
        <path id="Path_2767" data-name="Path 2767" d="M34.133,76.8h.755V78.31h-.755Zm0,0" transform="translate(-34.133 -76.801)"/>
        <path id="Path_2768" data-name="Path 2768" d="M273.066,76.8h.755V78.31h-.755Zm0,0" transform="translate(-262.5 -76.801)"/>
        <path id="Path_2769" data-name="Path 2769" d="M238.934,76.8h.755V78.31h-.755Zm0,0" transform="translate(-229.876 -76.801)"/>
        <path id="Path_2770" data-name="Path 2770" d="M204.8,76.8h.755V78.31H204.8Zm0,0" transform="translate(-197.253 -76.801)"/>
      </g>
      <path id="Path_2771" data-name="Path 2771" class="cls-5" d="M127.994,256a.755.755,0,0,0-.7,1.032l1.139,2.88a.377.377,0,0,0,.7,0l1.139-2.88a.755.755,0,0,0-.7-1.033Zm.789,2.748-.79-1.994h1.579Zm0,0" transform="translate(-121.613 -244.679)"/>
      <path id="Path_2772" data-name="Path 2772" class="cls-5" d="M129.131,384.235a.377.377,0,0,0-.7,0l-1.139,2.88a.755.755,0,0,0,.7,1.033h1.578a.755.755,0,0,0,.7-1.032Zm-1.14,3.158.789-1.993.789,1.993Zm0,0" transform="translate(-121.61 -367.014)"/>
      <path id="Path_2773" data-name="Path 2773" class="cls-5" d="M179.2,333.589a.377.377,0,0,0,.239.351l2.88,1.139a.755.755,0,0,0,1.033-.7V332.8a.755.755,0,0,0-1.033-.7l-2.88,1.139A.377.377,0,0,0,179.2,333.589Zm3.4-.788v1.577l-1.993-.788Zm0,0" transform="translate(-171.274 -317.361)"/>
      <path id="Path_2774" data-name="Path 2774" class="cls-5" d="M55.35,333.589a.377.377,0,0,0-.239-.351l-2.88-1.139a.755.755,0,0,0-1.033.7v1.577a.755.755,0,0,0,1.033.7l2.88-1.139A.377.377,0,0,0,55.35,333.589Zm-3.4.788V332.8l1.993.789Zm0,0" transform="translate(-48.935 -317.361)"/>
      <path id="Path_2775" data-name="Path 2775" class="cls-5" d="M13.586,0H.755A.755.755,0,0,0,0,.755v3.4A1.132,1.132,0,0,0,1.132,5.283H5.5L6.793,6.572V7.979A1.478,1.478,0,0,0,5.715,9.812H4.287a.755.755,0,0,0-.72.981l.83,2.664-2.661-.834a.755.755,0,0,0-.981.72v5.766a.755.755,0,0,0,.981.72L4.4,19l-.83,2.664a.755.755,0,0,0,.717.98h5.766a.755.755,0,0,0,.72-.981L9.944,19l2.664.832a.755.755,0,0,0,.978-.719V13.344a.755.755,0,0,0-.981-.72l-2.664.832.83-2.664a.755.755,0,0,0-.717-.98H8.626A1.478,1.478,0,0,0,7.548,7.979V6.572L8.836,5.283h4.372A1.132,1.132,0,0,0,14.34,4.151V.755A.755.755,0,0,0,13.586,0Zm0,.755V3.019H.755V.755ZM7.548,4.528V3.774H9.057v.755Zm-2.264,0V3.774h1.51v.755ZM3.019,3.774v.755H2.264V3.774Zm.755,0h.755v.755H3.774Zm6.038,0h.755v.755H9.812Zm1.509,0h.755v.755h-.755ZM.755,4.151V3.774h.755v.755H1.132A.377.377,0,0,1,.755,4.151Zm9.3,6.415L9.007,13.919a.377.377,0,0,0,.472.473l3.352-1.047v5.767L9.478,18.063a.377.377,0,0,0-.472.473l1.048,3.352H4.287l1.047-3.352a.378.378,0,0,0-.473-.474L1.509,19.111V13.344l3.352,1.047a.377.377,0,0,0,.472-.473L4.287,10.567ZM7.925,9.434a.747.747,0,0,1-.1.377h-1.3a.745.745,0,0,1,.293-1.037.368.368,0,0,0,.717,0A.751.751,0,0,1,7.925,9.434ZM7.17,5.882l-.6-.6h1.2Zm6.415-1.731a.377.377,0,0,1-.377.377h-.377V3.774h.755Zm0,0"/>
    </g>
  </g>
</svg>
