<svg xmlns="http://www.w3.org/2000/svg" width="177.637" height="109.595" viewBox="0 0 177.637 109.595">
  <defs>
    <style>
      .cls-1 {
        fill: #f29f5c;
      }

      .cls-2 {
        fill: #d37d42;
      }

      .cls-3 {
        fill: #f9c295;
      }

      .cls-4 {
        fill: #e59f6a;
      }

      .cls-5 {
        fill: #1c45a4;
      }

      .cls-6 {
        fill: #313366;
      }

      .cls-7 {
        fill: #ef8651;
      }

      .cls-8 {
        fill: #f16722;
      }

      .cls-9 {
        fill: #ebeef2;
      }
    </style>
  </defs>
  <g id="handshake_1_" data-name="handshake (1)" transform="translate(0.001 -98.057)">
    <g id="Group_9487" data-name="Group 9487" transform="translate(2.602 100.659)">
      <g id="Group_9482" data-name="Group 9482" transform="translate(40.973 2.385)">
        <path id="Path_2827" data-name="Path 2827" class="cls-1" d="M227.135,158.547l-4.512-36.656-8.456,1.041,0-.006L197.777,113.7a9.879,9.879,0,0,0-5.753-1.227l-25.884,2.394a9.877,9.877,0,0,0-7.63,4.873l-18.244,31.4a4.34,4.34,0,0,0,2.219,6.24l.746.282a16.185,16.185,0,0,0,4.386.979l-2.312,2.013-4.625,4.029L127.526,175.9a5.62,5.62,0,0,0-.545,7.93l1.334,1.528a7.223,7.223,0,0,0,10.188.7l5.027,5.766a7.209,7.209,0,0,0,10.188.7l5.022,5.767a7.226,7.226,0,0,0,10.194.7l2.729,2.359a7.226,7.226,0,0,0,10.194.7l3.71-3.237,31.189-24.29.034-.031,12.305-.012Z" transform="translate(-125.598 -112.431)"/>
        <path id="Path_2828" data-name="Path 2828" class="cls-2" d="M213.776,261.018l-.034.031-31.189,24.29-3.71,3.237a7.226,7.226,0,0,1-10.194-.7l-2.729-2.359a7.226,7.226,0,0,1-10.194-.7L150.7,279.05a7.209,7.209,0,0,1-10.188-.7l-5.027-5.766a7.222,7.222,0,0,1-8.945.426,5.618,5.618,0,0,0,.445,6.794l1.334,1.528a7.223,7.223,0,0,0,10.188.7l5.027,5.766a7.209,7.209,0,0,0,10.188.7l5.022,5.767a7.226,7.226,0,0,0,10.194.7l2.729,2.359a7.226,7.226,0,0,0,10.194.7l3.71-3.237,31.189-24.29.034-.031,12.305-.012-1.361-11.059Z" transform="translate(-125.605 -208.403)"/>
      </g>
      <g id="Group_9483" data-name="Group 9483" transform="translate(24.018 3.835)">
        <path id="Path_2829" data-name="Path 2829" class="cls-3" d="M187.532,183.63l-16.711-14.409-4.647-4-3.325-2.864-14.3-12.324,1.651-14.055a9.7,9.7,0,0,0-7.047-10.48l-31.164-8.623a7.212,7.212,0,0,0-8.342,3.663l-3.919,7.65-16.823-1.142L78.6,163.723l-1.873,15.94L93.1,180.753l.034.031,34.21,29.488,3.728,3.216a7.225,7.225,0,0,0,10.19-.757l4.989-5.789a7.226,7.226,0,0,0,10.19-.757l4.99-5.794a7.21,7.21,0,0,0,10.184-.752l4.995-5.794a7.223,7.223,0,0,0,10.184-.752l1.326-1.536A5.619,5.619,0,0,0,187.532,183.63Z" transform="translate(-76.727 -116.61)"/>
        <path id="Path_2830" data-name="Path 2830" class="cls-4" d="M285.585,301.52l-5.09-4.389a5.966,5.966,0,0,1-.247,7.482l-1.408,1.63a7.667,7.667,0,0,1-10.811.8l-5.3,6.151a7.654,7.654,0,0,1-10.811.8l-5.3,6.151a7.67,7.67,0,0,1-10.817.8l-5.3,6.146a7.616,7.616,0,0,1-3.634,2.343l2.255,1.945a7.225,7.225,0,0,0,10.19-.757l4.989-5.789a7.226,7.226,0,0,0,10.19-.757l4.99-5.794a7.21,7.21,0,0,0,10.184-.752l4.995-5.794a7.223,7.223,0,0,0,10.184-.752l1.326-1.536A5.62,5.62,0,0,0,285.585,301.52Z" transform="translate(-174.78 -234.5)"/>
      </g>
      <g id="Group_9485" data-name="Group 9485" transform="translate(37.951 65.375)">
        <g id="Group_9484" data-name="Group 9484">
          <path id="Path_2831" data-name="Path 2831" class="cls-1" d="M120.182,296.554l-1.982,2.617a6.474,6.474,0,0,0,1.252,9.069h0a6.474,6.474,0,0,0,9.069-1.252l1.982-2.617a6.474,6.474,0,0,0-1.252-9.069h0A6.474,6.474,0,0,0,120.182,296.554Z" transform="translate(-116.887 -293.988)"/>
          <path id="Path_2832" data-name="Path 2832" class="cls-1" d="M151.683,312.42l-3.733,4.929a6.474,6.474,0,0,0,1.252,9.069h0a6.474,6.474,0,0,0,9.069-1.252L162,320.236a6.474,6.474,0,0,0-1.252-9.069h0A6.474,6.474,0,0,0,151.683,312.42Z" transform="translate(-136.315 -304.349)"/>
          <path id="Path_2833" data-name="Path 2833" class="cls-1" d="M182.786,329.795l-5.087,6.718a6.474,6.474,0,0,0,1.252,9.069h0a6.474,6.474,0,0,0,9.069-1.253l5.087-6.718a6.474,6.474,0,0,0-1.252-9.069h0A6.474,6.474,0,0,0,182.786,329.795Z" transform="translate(-155.743 -315.696)"/>
          <path id="Path_2834" data-name="Path 2834" class="cls-1" d="M212.832,351.2l-5.383,7.107a6.474,6.474,0,0,0,1.252,9.069h0a6.474,6.474,0,0,0,9.069-1.252l5.383-7.107a6.474,6.474,0,0,0-1.252-9.069h0A6.474,6.474,0,0,0,212.832,351.2Z" transform="translate(-175.171 -329.676)"/>
        </g>
      </g>
      <path id="Path_2835" data-name="Path 2835" class="cls-1" d="M240.67,122.926,224.277,113.7a9.879,9.879,0,0,0-5.753-1.227l-25.884,2.394a9.877,9.877,0,0,0-7.63,4.873l-18.244,31.4a4.34,4.34,0,0,0,2.219,6.24l.746.282a16.222,16.222,0,0,0,18.595-5.292l6.99-9.1s16.8,19.454,35.3-3.265" transform="translate(-111.125 -110.046)"/>
      <path id="Path_2836" data-name="Path 2836" class="cls-5" d="M430.626,105.557l8.574,69.65-20.049,2.468a6.913,6.913,0,0,1-7.706-6.016L404.56,115.73a6.913,6.913,0,0,1,6.016-7.706Z" transform="translate(-266.768 -105.557)"/>
      <path id="Path_2837" data-name="Path 2837" class="cls-6" d="M430.092,279.764a7.579,7.579,0,0,1-8.317-5.846l.946,7.689a6.913,6.913,0,0,0,7.706,6.016l20.049-2.468-.958-7.783Z" transform="translate(-278.044 -215.506)"/>
      <path id="Path_2838" data-name="Path 2838" class="cls-7" d="M16.075,105.557,7.5,175.207l20.049,2.468a6.913,6.913,0,0,0,7.706-6.016l6.885-55.928a6.913,6.913,0,0,0-6.016-7.706Z" transform="translate(-7.501 -105.557)"/>
      <path id="Path_2839" data-name="Path 2839" class="cls-8" d="M28.022,282.945l-19.54-2.405L7.5,288.51l20.049,2.468a6.913,6.913,0,0,0,7.706-6.016l.727-5.908A8.121,8.121,0,0,1,28.022,282.945Z" transform="translate(-7.501 -218.86)"/>
      <g id="Group_9486" data-name="Group 9486" transform="translate(8.74 53.149)">
        <circle id="Ellipse_95" data-name="Ellipse 95" class="cls-9" cx="5.03" cy="5.03" r="5.03" transform="translate(144.611 0)"/>
        <circle id="Ellipse_96" data-name="Ellipse 96" class="cls-9" cx="5.03" cy="5.03" r="5.03" transform="translate(0 0)"/>
      </g>
    </g>
    <g id="Group_9488" data-name="Group 9488" transform="translate(-0.001 98.057)">
      <path id="Path_2840" data-name="Path 2840" d="M88.853,184.233a9.054,9.054,0,0,0-7.146-1.682,9.071,9.071,0,0,0-10.192-7.5,9.173,9.173,0,0,0-1.729.412,9.063,9.063,0,0,0-12.171-5.834,9.079,9.079,0,0,0-14.943-3.622l-9.524-.633,5.838-47.422,10.46.711c.059,0,.118.006.177.006a2.6,2.6,0,0,0,2.315-1.416l3.92-7.649a4.628,4.628,0,0,1,5.332-2.34l5.822,1.61a2.6,2.6,0,1,0,1.387-5.016l-5.821-1.609a9.853,9.853,0,0,0-11.35,4.981l-3.139,6.125-8.466-.575.2-1.629a9.525,9.525,0,0,0-8.281-10.606L11.494,98.077a2.6,2.6,0,1,0-.636,5.165l20.049,2.468a4.31,4.31,0,0,1,3.752,4.805l-6.885,55.928a4.317,4.317,0,0,1-4.805,3.752L2.919,167.727a2.6,2.6,0,1,0-.636,5.165l20.049,2.468a9.505,9.505,0,0,0,9.5-4.857l7.125.474A9.077,9.077,0,0,0,47.007,184.2a9.254,9.254,0,0,0,1.26-.087l.08-.013c0,.027.006.054.009.081a9.068,9.068,0,0,0,8.98,7.831,9.152,9.152,0,0,0,1.336-.1,9.057,9.057,0,0,0,8.986,7.918,9.148,9.148,0,0,0,1.332-.1c0,.029.006.058.01.087a9.08,9.08,0,0,0,8.972,7.836,9.246,9.246,0,0,0,1.26-.087,9.016,9.016,0,0,0,5.993-3.511l5.383-7.107A9.085,9.085,0,0,0,88.853,184.233Zm-41.3-5.272a3.872,3.872,0,0,1-3.616-6.173l1.982-2.617a3.872,3.872,0,0,1,6.173,4.675l-1.982,2.617A3.848,3.848,0,0,1,47.556,178.961Zm7.454,7.068a3.871,3.871,0,0,1-.749-5.424l1.982-2.617h0l1.75-2.311a3.872,3.872,0,0,1,6.173,4.675l-3.733,4.929A3.876,3.876,0,0,1,55.011,186.029Zm10.322,7.817a3.872,3.872,0,0,1-.75-5.423h0l3.733-4.929h0l1.354-1.788a3.872,3.872,0,0,1,6.174,4.673L70.756,193.1h0A3.876,3.876,0,0,1,65.332,193.846Zm21.128-.04-5.383,7.107a3.871,3.871,0,1,1-6.173-4.675l5.088-6.718,0,0,.292-.386a3.871,3.871,0,1,1,6.172,4.675Z" transform="translate(0.001 -98.057)"/>
      <path id="Path_2841" data-name="Path 2841" d="M281.242,169.992a2.6,2.6,0,0,0-2.9-2.265L258.293,170.2a4.314,4.314,0,0,1-4.805-3.752l-.205-1.669h0l-.048-.387L246.6,110.516a4.31,4.31,0,0,1,3.752-4.805l20.049-2.468a2.6,2.6,0,1,0-.636-5.165l-20.049,2.468a9.527,9.527,0,0,0-8.348,9.69l-5.056.622-15.656-8.811a12.425,12.425,0,0,0-7.268-1.552l-.016,0-4.713.436a2.6,2.6,0,0,0,.479,5.182l4.726-.437a7.243,7.243,0,0,1,4.238.9l16.233,9.135a2.6,2.6,0,0,0,1.751.412l5.872-.723,4.307,34.987,1.489,12.1-9.367.008a2.6,2.6,0,0,0-1.7.633l-.725.564L212.452,143.43c5.374-1.545,10.5-5.282,15.286-11.164a2.6,2.6,0,1,0-4.036-3.286c-5.353,6.575-10.982,9.959-16.73,10.058-8.374.158-14.527-6.786-14.584-6.851a2.6,2.6,0,0,0-4.033.115l-6.99,9.1a13.54,13.54,0,0,1-15.612,4.443l-.746-.282a1.738,1.738,0,0,1-.889-2.5l18.244-31.4a7.288,7.288,0,0,1,5.62-3.589l10.8-1a2.6,2.6,0,1,0-.479-5.182l-10.8,1a12.5,12.5,0,0,0-9.641,6.157l-18.244,31.4a6.942,6.942,0,0,0,3.55,9.981l.746.282a18.958,18.958,0,0,0,6.707,1.233,18.715,18.715,0,0,0,14.871-7.373l5.215-6.787c2.795,2.408,8.008,5.976,14.663,6.414l33.982,29.288a3.02,3.02,0,0,1,.317,4.257l-1.324,1.536a4.631,4.631,0,0,1-6.518.478,2.6,2.6,0,0,0-.34-.245l-8.821-7.606a2.6,2.6,0,0,0-3.4,3.942l7.169,6.181-3.27,3.795a4.61,4.61,0,0,1-6.516.482l-.039-.03-8.2-7.067a2.6,2.6,0,1,0-3.4,3.942l6.264,5.4-3.289,3.82a4.627,4.627,0,0,1-4.047,1.575,2.6,2.6,0,1,0-.607,5.168,9.828,9.828,0,0,0,8.6-3.346l3.517-4.084a9.82,9.82,0,0,0,11.658-2.462l3.523-4.088a9.848,9.848,0,0,0,11.656-2.455l1.326-1.538a8.223,8.223,0,0,0-.862-11.6l-2.136-1.841,7.807-.007a9.507,9.507,0,0,0,10.507,7.665l20.049-2.468A2.6,2.6,0,0,0,281.242,169.992Z" transform="translate(-103.625 -98.058)"/>
      <path id="Path_2842" data-name="Path 2842" d="M449.636,251.249a7.632,7.632,0,1,0,7.632,7.632A7.641,7.641,0,0,0,449.636,251.249Zm0,10.06a2.428,2.428,0,1,1,2.428-2.428A2.431,2.431,0,0,1,449.636,261.309Z" transform="translate(-288.652 -198.1)"/>
      <path id="Path_2843" data-name="Path 2843" d="M40.457,258.881a7.632,7.632,0,1,0-7.632,7.632A7.641,7.641,0,0,0,40.457,258.881Zm-10.06,0a2.428,2.428,0,1,1,2.428,2.428A2.431,2.431,0,0,1,30.4,258.881Z" transform="translate(-16.452 -198.1)"/>
    </g>
  </g>
</svg>
