<svg xmlns="http://www.w3.org/2000/svg" xmlns:xlink="http://www.w3.org/1999/xlink" width="336.279" height="395.622" viewBox="0 0 336.279 395.622">
  <defs>
    <style>
      .cls-1, .cls-22 {
        opacity: 0.32;
      }

      .cls-2 {
        fill: url(#linear-gradient);
      }

      .cls-3 {
        fill: #25316d;
      }

      .cls-4 {
        opacity: 0.53;
      }

      .cls-5 {
        opacity: 0.37;
      }

      .cls-6 {
        fill: #f16722;
      }

      .cls-7 {
        opacity: 0.47;
      }

      .cls-8 {
        fill: rgba(0,0,0,0.2);
      }

      .cls-9 {
        fill: #313366;
      }

      .cls-10 {
        fill: url(#linear-gradient-2);
      }

      .cls-11 {
        fill: url(#linear-gradient-3);
      }

      .cls-12 {
        fill: url(#linear-gradient-4);
      }

      .cls-13 {
        fill: url(#linear-gradient-5);
      }

      .cls-14 {
        fill: url(#linear-gradient-6);
      }

      .cls-15 {
        fill: #f9fbfc;
      }

      .cls-16 {
        fill: #113c7a;
      }

      .cls-17 {
        fill: #fff;
      }

      .cls-18 {
        fill: #cfe3ff;
      }

      .cls-19 {
        fill: url(#linear-gradient-7);
      }

      .cls-20 {
        fill: none;
      }

      .cls-21 {
        fill: url(#linear-gradient-8);
      }

      .cls-22 {
        fill: url(#linear-gradient-9);
      }

      .cls-23 {
        fill: #ff9d6f;
      }

      .cls-24 {
        fill: url(#linear-gradient-10);
      }

      .cls-25 {
        fill: url(#linear-gradient-11);
      }

      .cls-26 {
        fill: #ff7c40;
      }

      .cls-27 {
        fill: #843837;
      }

      .cls-28 {
        fill: #c38567;
      }

      .cls-29 {
        fill: #5167b0;
      }

      .cls-30 {
        fill: url(#linear-gradient-13);
      }

      .cls-31 {
        fill: #595959;
      }

      .cls-32 {
        fill: #c9c9c9;
      }

      .cls-33 {
        fill: #ac755a;
      }

      .cls-34 {
        opacity: 0.43;
        fill: url(#linear-gradient-14);
      }

      .cls-35 {
        fill: url(#linear-gradient-15);
      }

      .cls-36 {
        opacity: 0.57;
      }

      .cls-37 {
        fill: #898aa7;
      }
    </style>
    <linearGradient id="linear-gradient" x1="-2.924" y1="0.5" x2="-1.924" y2="0.5" gradientUnits="objectBoundingBox">
      <stop offset="0" stop-color="#5155d4"/>
      <stop offset="1" stop-color="#45f7ff"/>
    </linearGradient>
    <linearGradient id="linear-gradient-2" y1="0.5" x2="1" y2="0.5" gradientUnits="objectBoundingBox">
      <stop offset="0" stop-color="#1c45a4"/>
      <stop offset="0.242" stop-color="#1c45a4"/>
      <stop offset="0.595" stop-color="#1c45a4"/>
      <stop offset="0.94" stop-color="#1473e9"/>
      <stop offset="1" stop-color="#b391ff"/>
    </linearGradient>
    <linearGradient id="linear-gradient-3" x1="0.5" y1="1.046" x2="0.5" y2="0.11" gradientUnits="objectBoundingBox">
      <stop offset="0" stop-color="#25316d"/>
      <stop offset="0.186" stop-color="#1c45a4"/>
      <stop offset="0.457" stop-color="#1c45a4"/>
      <stop offset="0.779" stop-color="#25316d"/>
      <stop offset="0.94" stop-color="#1c45a4"/>
      <stop offset="1" stop-color="#1c45a4"/>
    </linearGradient>
    <linearGradient id="linear-gradient-4" x1="0.811" y1="1.237" x2="0.422" y2="0.315" gradientUnits="objectBoundingBox">
      <stop offset="0" stop-color="#313366"/>
      <stop offset="0.242" stop-color="#313366"/>
      <stop offset="0.595" stop-color="#313366"/>
      <stop offset="0.94" stop-color="#3a4371"/>
      <stop offset="1" stop-color="#3a4371"/>
    </linearGradient>
    <linearGradient id="linear-gradient-5" x1="0.5" y1="1.287" x2="0.5" y2="2.134" gradientUnits="objectBoundingBox">
      <stop offset="0" stop-color="#fff"/>
      <stop offset="0.242" stop-color="#8664ff"/>
      <stop offset="0.595" stop-color="#97f"/>
      <stop offset="0.94" stop-color="#b391ff"/>
      <stop offset="1" stop-color="#b391ff"/>
    </linearGradient>
    <linearGradient id="linear-gradient-6" x1="0.5" y1="2.777" x2="0.5" y2="-0.873" gradientUnits="objectBoundingBox">
      <stop offset="0" stop-color="#fff"/>
      <stop offset="0.94" stop-color="#fff"/>
      <stop offset="1" stop-color="#313366"/>
    </linearGradient>
    <linearGradient id="linear-gradient-7" x1="0.067" y1="-0.191" x2="0.932" y2="1.199" gradientUnits="objectBoundingBox">
      <stop offset="0" stop-color="#1c45a4"/>
      <stop offset="0.34" stop-color="#25316d"/>
      <stop offset="0.94" stop-color="#ef6737"/>
      <stop offset="1" stop-color="#f16722"/>
    </linearGradient>
    <linearGradient id="linear-gradient-8" x1="0.5" y1="-0.431" x2="0.5" y2="1.431" xlink:href="#linear-gradient"/>
    <linearGradient id="linear-gradient-9" x1="0" x2="1" xlink:href="#linear-gradient"/>
    <linearGradient id="linear-gradient-10" x1="0.715" y1="0.051" x2="0.075" y2="0.998" gradientUnits="objectBoundingBox">
      <stop offset="0" stop-color="#6851f5"/>
      <stop offset="1" stop-color="#00cfff"/>
    </linearGradient>
    <linearGradient id="linear-gradient-11" x1="0" y1="0.5" x2="1" y2="0.5" xlink:href="#linear-gradient-10"/>
    <linearGradient id="linear-gradient-13" x1="12.187" y1="1.794" x2="12.531" y2="-0.972" gradientUnits="objectBoundingBox">
      <stop offset="0" stop-color="#ff874b"/>
      <stop offset="0.242" stop-color="#8664ff"/>
      <stop offset="0.595" stop-color="#97f"/>
      <stop offset="0.94" stop-color="#b391ff"/>
      <stop offset="1" stop-color="#b391ff"/>
    </linearGradient>
    <linearGradient id="linear-gradient-14" x1="20.739" y1="0.5" x2="21.739" y2="0.5" gradientUnits="objectBoundingBox">
      <stop offset="0" stop-color="#ddd"/>
      <stop offset="1" stop-color="#ff3d9d"/>
    </linearGradient>
    <linearGradient id="linear-gradient-15" x1="15.474" y1="-1.011" x2="15.494" y2="0.922" gradientUnits="objectBoundingBox">
      <stop offset="0" stop-color="#f16722"/>
      <stop offset="0.242" stop-color="#f16722"/>
      <stop offset="0.595" stop-color="#f16722"/>
      <stop offset="0.94" stop-color="#f16722"/>
      <stop offset="1" stop-color="#b391ff"/>
    </linearGradient>
  </defs>
  <g id="Group_9112" data-name="Group 9112" transform="translate(0 0)">
    <g id="Group_9091" data-name="Group 9091">
      <g id="Group_9051" data-name="Group 9051" class="cls-1" transform="translate(134.828 295.589)">
        <path id="Path_2683" data-name="Path 2683" class="cls-2" d="M220.4,354.344c-2.881,1.665-2.891,4.356-.034,6.016l95.7,55.613a11.432,11.432,0,0,0,10.386,0l22.435-10.5c2.877-1.66,2.9-4.353.035-6.016l-95.7-55.611a11.449,11.449,0,0,0-10.386,0Z" transform="translate(-218.229 -342.596)"/>
      </g>
      <g id="Group_9056" data-name="Group 9056" transform="translate(75.005 66.584)">
        <g id="Group_9052" data-name="Group 9052" transform="translate(35.642)">
          <path id="Path_2684" data-name="Path 2684" class="cls-3" d="M195.93,139.79l.007,2.389a1.83,1.83,0,0,0,2.748,1.578l11.268-6.537a1.831,1.831,0,0,0,.911-1.588l-.007-2.389a1.83,1.83,0,0,0-2.748-1.578L196.842,138.2A1.829,1.829,0,0,0,195.93,139.79Z" transform="translate(-195.93 -131.415)"/>
        </g>
        <g id="Group_9053" data-name="Group 9053" transform="translate(0 11.885)">
          <path id="Path_2685" data-name="Path 2685" class="cls-3" d="M163.062,171.317l.007,2.393a1.83,1.83,0,0,0,2.745,1.58l46.944-27.1a1.829,1.829,0,0,0,.914-1.59l-.007-2.393a1.83,1.83,0,0,0-2.745-1.58l-46.944,27.1A1.829,1.829,0,0,0,163.062,171.317Z" transform="translate(-163.062 -142.376)"/>
        </g>
        <g id="Group_9054" data-name="Group 9054" class="cls-4" transform="translate(19.421 35.671)">
          <path id="Path_2686" data-name="Path 2686" class="cls-3" d="M180.971,182.077l.008,2.393a1.83,1.83,0,0,0,2.745,1.58l27.589-15.929a1.831,1.831,0,0,0,.914-1.59l-.007-2.394a1.83,1.83,0,0,0-2.745-1.58l-27.589,15.93A1.83,1.83,0,0,0,180.971,182.077Z" transform="translate(-180.971 -164.31)"/>
        </g>
        <g id="Group_9055" data-name="Group 9055" transform="translate(7.312 23.778)">
          <path id="Path_2687" data-name="Path 2687" class="cls-3" d="M169.8,178.08l.008,2.394a1.829,1.829,0,0,0,2.744,1.579l39.665-22.9a1.832,1.832,0,0,0,.914-1.591l-.007-2.393a1.83,1.83,0,0,0-2.745-1.58l-39.664,22.9A1.832,1.832,0,0,0,169.8,178.08Z" transform="translate(-169.805 -153.343)"/>
        </g>
      </g>
      <g id="Group_9061" data-name="Group 9061" transform="translate(306.201 99.12)">
        <g id="Group_9058" data-name="Group 9058" class="cls-5">
          <g id="Group_9057" data-name="Group 9057">
            <path id="Path_2688" data-name="Path 2688" class="cls-6" d="M397.844,173.437a2.059,2.059,0,0,1,.934,1.618l-.047,16.266c0,.593-.422.833-.939.535L377.2,179.966a2.056,2.056,0,0,1-.935-1.616l.047-16.266c0-.6.422-.835.94-.536Z" transform="translate(-376.263 -161.419)"/>
          </g>
        </g>
        <g id="Group_9060" data-name="Group 9060" class="cls-7" transform="translate(7.565 28.939)">
          <g id="Group_9059" data-name="Group 9059">
            <path id="Path_2689" data-name="Path 2689" class="cls-8" d="M404.82,200.126a2.056,2.056,0,0,1,.933,1.617l-.047,16.266c0,.593-.422.833-.938.535l-20.6-11.889a2.056,2.056,0,0,1-.934-1.617l.046-16.266c0-.6.423-.835.94-.536Z" transform="translate(-383.239 -188.106)"/>
          </g>
        </g>
      </g>
      <g id="Group_9066" data-name="Group 9066" transform="translate(111.941 147.665)">
        <g id="Group_9063" data-name="Group 9063" class="cls-5" transform="translate(0 0)">
          <g id="Group_9062" data-name="Group 9062">
            <path id="Path_2690" data-name="Path 2690" class="cls-6" d="M211.066,213.95a1.331,1.331,0,0,1,.6,1.045l-.03,10.51c0,.383-.272.538-.606.345l-13.307-7.682a1.329,1.329,0,0,1-.6-1.044l.029-10.51c0-.384.273-.539.608-.346Z" transform="translate(-197.123 -206.185)"/>
          </g>
        </g>
        <g id="Group_9065" data-name="Group 9065" class="cls-7" transform="translate(4.887 18.698)">
          <g id="Group_9064" data-name="Group 9064">
            <path id="Path_2691" data-name="Path 2691" class="cls-9" d="M215.573,231.193a1.329,1.329,0,0,1,.6,1.045l-.03,10.509c0,.384-.272.539-.606.346l-13.307-7.682a1.331,1.331,0,0,1-.6-1.044l.029-10.51c0-.384.273-.539.607-.346Z" transform="translate(-201.63 -223.428)"/>
          </g>
        </g>
      </g>
      <g id="Group_9077" data-name="Group 9077" transform="translate(145.293)">
        <g id="Group_9072" data-name="Group 9072">
          <path id="Path_2692" data-name="Path 2692" class="cls-10" d="M348.644,136.16l.221.181q.953.781,1.875,1.637l.221.2q.932.878,1.828,1.827c.051.054.1.105.152.159q.956,1.022,1.864,2.111l.021.025q.929,1.119,1.8,2.3h0c.531.72,1.041,1.463,1.538,2.213.308.466.6.946.891,1.422.244.4.5.786.731,1.189.112.191.216.386.324.578.384.679.759,1.362,1.113,2.056.038.075.078.149.116.223q.638,1.267,1.2,2.558c.018.043.037.088.056.131a41.378,41.378,0,0,1,3.7,16.273l9.866-5.733a40.149,40.149,0,0,0-2.951-14.42l.015-.009q-.208-.537-.43-1.071c-.107-.258-.219-.515-.331-.772-.02-.044-.038-.088-.056-.132s-.042-.1-.064-.147q-.236-.535-.485-1.065-.275-.586-.564-1.166c-.03-.06-.063-.118-.092-.178-.038-.076-.078-.15-.116-.224-.157-.308-.313-.616-.476-.922-.2-.384-.424-.759-.639-1.138-.107-.191-.21-.384-.321-.573-.043-.075-.083-.152-.127-.228-.193-.327-.408-.642-.607-.966-.293-.476-.582-.953-.889-1.418-.05-.074-.093-.152-.142-.226q-.677-1.012-1.4-1.989h0q-.481-.652-.981-1.287c-.269-.343-.543-.68-.82-1.014l-.021-.025-.01-.013q-.421-.506-.852-1t-.859-.951c-.047-.05-.1-.1-.142-.149l-.154-.162c-.2-.213-.4-.427-.606-.635q-.46-.467-.929-.918c-.1-.092-.2-.18-.292-.271l-.222-.207c-.152-.141-.3-.286-.457-.424q-.486-.439-.981-.857c-.144-.121-.291-.237-.436-.356l-.221-.181c-.108-.087-.216-.179-.324-.265-.321-.253-.643-.5-.968-.738-.235-.174-.473-.338-.709-.5-.043-.03-.086-.062-.129-.091s-.08-.059-.121-.087q-.465-.319-.937-.619t-.934-.571c-.072-.043-.144-.085-.217-.127l-94.2-54.385c-.234-.136-.468-.266-.7-.393q-.455-.246-.9-.467c-.194-.1-.387-.184-.581-.274-.047-.022-.094-.046-.141-.066s-.114-.055-.171-.081q-.444-.2-.883-.374t-.89-.335L255.55,71c-.046-.016-.09-.029-.136-.044-.2-.067-.4-.136-.6-.2-.306-.093-.611-.177-.912-.252-.145-.037-.288-.064-.433-.1-.064-.014-.127-.029-.191-.042-.093-.02-.188-.044-.281-.063q-.488-.094-.965-.159c-.2-.026-.388-.04-.582-.059l-.2-.022c-.065,0-.131-.015-.2-.02-.35-.024-.7-.036-1.037-.034-.151,0-.3.015-.445.021-.115,0-.23.009-.344.016s-.24.005-.356.016a12.04,12.04,0,0,0-1.272.185l-.023.005c-.093.02-.179.054-.271.075a11.258,11.258,0,0,0-1.248.344c-.048.017-.092.039-.139.056-.068.025-.132.055-.2.081a10.621,10.621,0,0,0-1.449.689L234.4,77.236a10.741,10.741,0,0,1,1.449-.689c.067-.026.132-.056.2-.081a11.057,11.057,0,0,1,1.389-.4c.091-.022.177-.055.269-.075a12.347,12.347,0,0,1,1.65-.207c.114-.008.229-.012.344-.016a13.859,13.859,0,0,1,1.678.034c.067.005.137.014.2.021a16.241,16.241,0,0,1,1.827.281c.064.013.127.028.191.042a19.267,19.267,0,0,1,1.942.543c.046.015.091.028.136.044q1.031.353,2.1.839c.048.021.1.044.142.067.72.333,1.448.707,2.186,1.133l94.2,54.385c.745.431,1.481.9,2.208,1.4.043.029.086.061.129.091Q347.658,135.362,348.644,136.16Z" transform="translate(-227.328 -70.014)"/>
          <path id="Path_2693" data-name="Path 2693" class="cls-11" d="M366.436,158.214q-.016-.53-.05-1.067t-.086-1.072c-.034-.359-.074-.72-.12-1.081s-.1-.739-.157-1.108-.123-.743-.193-1.115-.15-.767-.233-1.152-.175-.77-.27-1.155-.2-.781-.307-1.171-.221-.778-.341-1.166-.239-.761-.367-1.141-.256-.75-.391-1.125-.267-.721-.407-1.081l-9.865,5.733q.21.54.406,1.081.2.561.393,1.125t.365,1.141q.179.582.34,1.166t.308,1.171c.1.385.184.771.269,1.155s.162.769.233,1.152.134.744.193,1.115.112.74.158,1.108.086.722.12,1.081.062.717.085,1.072.039.714.05,1.067c.01.334.015.666.014,1l-.641,226.022c0,.838-.044,1.642-.116,2.419-.007.07-.014.139-.022.208q-.107,1.069-.3,2.058c-.016.088-.035.176-.052.262q-.2.956-.474,1.834c-.035.11-.072.216-.107.324a16.47,16.47,0,0,1-.617,1.578c-.025.054-.046.113-.07.167a13.785,13.785,0,0,1-.887,1.606c-.043.068-.094.128-.139.2a12.242,12.242,0,0,1-.853,1.126c-.11.129-.224.252-.339.374a11.221,11.221,0,0,1-.826.8c-.119.1-.236.213-.359.31a10.455,10.455,0,0,1-1.276.888l9.866-5.733a10.451,10.451,0,0,0,1.276-.888c.123-.1.239-.206.358-.309a11.277,11.277,0,0,0,.827-.8c.115-.124.23-.245.339-.374a12.058,12.058,0,0,0,.852-1.126c.046-.067.1-.127.14-.2.01-.015.022-.028.031-.043a13.864,13.864,0,0,0,.833-1.509c.008-.017.014-.036.022-.052.026-.055.047-.115.073-.17.153-.336.3-.675.435-1.032.065-.176.119-.362.18-.543.037-.108.074-.215.108-.325s.067-.192.1-.293q.161-.548.294-1.126c.03-.134.054-.276.082-.413.018-.088.036-.176.053-.265.026-.134.057-.265.081-.4.06-.345.112-.7.157-1.054.025-.2.042-.4.062-.6.008-.069.015-.138.022-.208s.019-.166.026-.252c.028-.341.05-.687.064-1.039s.024-.7.025-1.066v-.063l.641-226.022Q366.45,158.715,366.436,158.214Z" transform="translate(-217.613 -63.703)"/>
          <g id="Group_9067" data-name="Group 9067" transform="translate(0 5.733)">
            <path id="Path_2694" data-name="Path 2694" class="cls-12" d="M344.856,132.712c12.181,7.033,22.033,24.088,21.994,38.1l-.641,226.022c-.04,14-9.957,19.648-22.138,12.615l-94.2-54.385c-12.181-7.032-22.034-24.1-21.994-38.1l.641-226.021c.039-14.008,9.956-19.648,22.138-12.616Z" transform="translate(-227.879 -75.301)"/>
          </g>
          <g id="Group_9071" data-name="Group 9071" transform="translate(8.015 43.16)">
            <g id="Group_9068" data-name="Group 9068" transform="translate(47.251 7.27)">
              <path id="Path_2695" data-name="Path 2695" class="cls-13" d="M305.815,130.909a5.872,5.872,0,0,1,2.663,4.613c0,1.7-1.206,2.39-2.681,1.539l-24.291-14.025a5.881,5.881,0,0,1-2.664-4.624c.005-1.695,1.207-2.379,2.682-1.528Z" transform="translate(-278.843 -116.519)"/>
            </g>
            <g id="Group_9069" data-name="Group 9069" transform="translate(51.237 233.526)">
              <ellipse id="Ellipse_81" data-name="Ellipse 81" class="cls-14" cx="5.882" cy="10.154" rx="5.882" ry="10.154" transform="translate(0 5.91) rotate(-30.162)"/>
            </g>
            <g id="Group_9070" data-name="Group 9070">
              <path id="Path_2696" data-name="Path 2696" class="cls-15" d="M356.554,178.549a4.868,4.868,0,0,1,2.209,3.827l-.536,188.857c0,1.406-1,1.974-2.223,1.267l-118.525-68.43a4.867,4.867,0,0,1-2.209-3.827l.536-188.855c0-1.408,1-1.975,2.223-1.268Z" transform="translate(-235.27 -109.814)"/>
            </g>
          </g>
          <path id="Path_2697" data-name="Path 2697" class="cls-15" d="M360.909,237.105h0a1.4,1.4,0,0,1-1.4-1.4V193.712a1.4,1.4,0,0,1,1.4-1.4h0a1.4,1.4,0,0,1,1.4,1.4v41.994A1.4,1.4,0,0,1,360.909,237.105Z" transform="translate(-216.769 -59.691)"/>
          <path id="Path_2698" data-name="Path 2698" class="cls-15" d="M360.909,285.3h0a1.4,1.4,0,0,1-1.4-1.4V241.9a1.4,1.4,0,0,1,1.4-1.4h0a1.4,1.4,0,0,1,1.4,1.4V283.9A1.4,1.4,0,0,1,360.909,285.3Z" transform="translate(-216.769 -55.624)"/>
          <path id="Path_2699" data-name="Path 2699" class="cls-16" d="M360.909,342.938h0a1.4,1.4,0,0,1-1.4-1.4V319.783a1.4,1.4,0,0,1,1.4-1.4h0a1.4,1.4,0,0,1,1.4,1.4v21.755A1.4,1.4,0,0,1,360.909,342.938Z" transform="translate(-216.769 -49.051)"/>
        </g>
        <g id="Group_9073" data-name="Group 9073" transform="translate(57.535 123.593)">
          <path id="Path_2700" data-name="Path 2700" class="cls-17" d="M292.054,185.507c6.063,3.5,10.975,11.954,11.035,18.946,0,.057,0,.115,0,.171-.255.1-5.091,2.03-11.24-1.4l-.215-.123c-4.808-2.776-8.746-8.281-10.149-10.406-.359-.543-.542-.849-.552-.865C280.956,184.809,285.932,181.973,292.054,185.507Z" transform="translate(-280.936 -183.987)"/>
        </g>
        <g id="Group_9074" data-name="Group 9074" transform="translate(18.565 129.448)">
          <path id="Path_2701" data-name="Path 2701" class="cls-18" d="M344.982,245.972a5.569,5.569,0,0,1,2.53,4.372l-.03,10.649c0,1.612-1.143,2.261-2.546,1.451l-97.407-56.237a5.571,5.571,0,0,1-2.53-4.382l.03-10.649c0-1.6,1.143-2.251,2.546-1.441Z" transform="translate(-244.999 -189.386)"/>
        </g>
        <path id="Path_2702" data-name="Path 2702" class="cls-19" d="M309.263,185.075a33.671,33.671,0,0,1,1.206,5.657,26.776,26.776,0,0,1,.2,3.3c0,.329-.01.651-.024.968,0,.048,0,.1-.007.145-.015.3-.037.6-.063.888-.005.056-.011.112-.017.168-.029.291-.063.577-.1.858-.057.381-.1.652-.157.917-.068.344-.131.608-.2.869-.012.043-.022.089-.034.132q-.1.379-.216.74c-.014.044-.029.088-.043.131-.08.243-.165.483-.256.714-.116.29-.21.508-.309.719-.141.3-.248.509-.36.712l-.065.117q-.169.3-.351.581c-.02.03-.04.06-.06.089-.129.2-.262.386-.4.567s-.29.361-.438.529c-.021.024-.041.049-.063.072-.144.16-.293.313-.446.461-.028.028-.058.055-.087.083-.154.144-.31.283-.472.415-.025.021-.051.04-.076.06q-.242.194-.5.37c-.21.145-.389.256-.572.361l-.1.06q-.265.15-.542.281l-.115.052c-.19.087-.383.168-.579.242-.163.057-.266.088-.368.12-.064-6.991-4.974-15.439-11.036-18.938-6.121-3.534-11.1-.7-11.118,6.325.01.015.178.3.5.793-.144-.2-.289-.4-.43-.6-.273-.4-.46-.672-.643-.951-.033-.051-.066-.1-.1-.152q-.291-.447-.572-.9c-.04-.064-.079-.129-.119-.194-.19-.311-.378-.625-.561-.941-.2-.343-.372-.657-.543-.973-.034-.061-.067-.121-.1-.182q-.255-.473-.5-.952l-.088-.175q-.231-.46-.451-.924c-.2-.415-.344-.745-.489-1.075-.03-.068-.06-.136-.089-.2q-.215-.493-.415-.989c-.171-.428-.292-.742-.409-1.056-.02-.053-.039-.1-.059-.156q-.182-.5-.35-1c-.023-.066-.044-.133-.066-.2q-.338-1.02-.615-2.042c-.018-.067-.037-.134-.054-.2q-.132-.5-.247-.99c-.014-.059-.026-.117-.04-.176q-.107-.472-.2-.94c-.087-.44-.144-.771-.2-1.1-.011-.072-.023-.142-.034-.213-.051-.33-.1-.659-.138-.987-.049-.42-.08-.728-.106-1.035,0-.055-.01-.111-.014-.167-.026-.32-.046-.64-.059-.956,0-.068-.005-.137-.008-.2-.012-.326-.019-.651-.018-.974a21.508,21.508,0,0,1,.218-3.061,15.144,15.144,0,0,1,1.234-4.249c.116-.246.239-.484.366-.715,2.957-5.309,9.208-6.542,16.428-2.374,6.48,3.741,12.156,10.921,15.364,18.644.211.509.415,1.018.6,1.53Q308.919,183.936,309.263,185.075Zm-16.392.526c3.736,2.157,6.766.42,6.779-3.863a14.829,14.829,0,0,0-6.735-11.665c-3.727-2.153-6.767-.429-6.779,3.863a14.86,14.86,0,0,0,6.735,11.665" transform="translate(-223.962 -62.407)"/>
        <path id="Path_2703" data-name="Path 2703" class="cls-20" d="M309.263,185.075a33.671,33.671,0,0,1,1.206,5.657,26.776,26.776,0,0,1,.2,3.3c0,.329-.01.651-.024.968,0,.048,0,.1-.007.145-.015.3-.037.6-.063.888-.005.056-.011.112-.017.168-.029.291-.063.577-.1.858-.057.381-.1.652-.157.917-.068.344-.131.608-.2.869-.012.043-.022.089-.034.132q-.1.379-.216.74c-.014.044-.029.088-.043.131-.08.243-.165.483-.256.714-.116.29-.21.508-.309.719-.141.3-.248.509-.36.712l-.065.117q-.169.3-.351.581c-.02.03-.04.06-.06.089-.129.2-.262.386-.4.567s-.29.361-.438.529c-.021.024-.041.049-.063.072-.144.16-.293.313-.446.461-.028.028-.058.055-.087.083-.154.144-.31.283-.472.415-.025.021-.051.04-.076.06q-.242.194-.5.37c-.21.145-.389.256-.572.361l-.1.06q-.265.15-.542.281l-.115.052c-.19.087-.383.168-.579.242-.163.057-.266.088-.368.12-.064-6.991-4.974-15.439-11.036-18.938-6.121-3.534-11.1-.7-11.118,6.325.01.015.178.3.5.793-.144-.2-.289-.4-.43-.6-.273-.4-.46-.672-.643-.951-.033-.051-.066-.1-.1-.152q-.291-.447-.572-.9c-.04-.064-.079-.129-.119-.194-.19-.311-.378-.625-.561-.941-.2-.343-.372-.657-.543-.973-.034-.061-.067-.121-.1-.182q-.255-.473-.5-.952l-.088-.175q-.231-.46-.451-.924c-.2-.415-.344-.745-.489-1.075-.03-.068-.06-.136-.089-.2q-.215-.493-.415-.989c-.171-.428-.292-.742-.409-1.056-.02-.053-.039-.1-.059-.156q-.182-.5-.35-1c-.023-.066-.044-.133-.066-.2q-.338-1.02-.615-2.042c-.018-.067-.037-.134-.054-.2q-.132-.5-.247-.99c-.014-.059-.026-.117-.04-.176q-.107-.472-.2-.94c-.087-.44-.144-.771-.2-1.1-.011-.072-.023-.142-.034-.213-.051-.33-.1-.659-.138-.987-.049-.42-.08-.728-.106-1.035,0-.055-.01-.111-.014-.167-.026-.32-.046-.64-.059-.956,0-.068-.005-.137-.008-.2-.012-.326-.019-.651-.018-.974a21.508,21.508,0,0,1,.218-3.061,15.144,15.144,0,0,1,1.234-4.249c.116-.246.239-.484.366-.715,2.957-5.309,9.208-6.542,16.428-2.374,6.48,3.741,12.156,10.921,15.364,18.644.211.509.415,1.018.6,1.53Q308.919,183.936,309.263,185.075Zm-16.392.526c3.736,2.157,6.766.42,6.779-3.863a14.829,14.829,0,0,0-6.735-11.665c-3.727-2.153-6.767-.429-6.779,3.863a14.86,14.86,0,0,0,6.735,11.665" transform="translate(-223.962 -62.407)"/>
        <g id="Group_9075" data-name="Group 9075" transform="translate(62.174 106.74)">
          <path id="Path_2704" data-name="Path 2704" class="cls-17" d="M291.993,169.372a14.828,14.828,0,0,1,6.735,11.665c-.013,4.282-3.043,6.02-6.779,3.863a14.86,14.86,0,0,1-6.735-11.665C285.227,168.943,288.267,167.221,291.993,169.372Z" transform="translate(-285.214 -168.446)"/>
        </g>
        <g id="Group_9076" data-name="Group 9076" transform="translate(18.499 152.626)">
          <path id="Path_2705" data-name="Path 2705" class="cls-18" d="M344.921,267.346a5.573,5.573,0,0,1,2.53,4.382l-.03,10.65c0,1.612-1.143,2.251-2.546,1.441l-97.407-56.238a5.552,5.552,0,0,1-2.53-4.371l.03-10.65c0-1.612,1.143-2.261,2.546-1.451Z" transform="translate(-244.938 -210.76)"/>
        </g>
        <path id="Path_2706" data-name="Path 2706" class="cls-21" d="M305,280.338a13.218,13.218,0,0,1,6,10.384l-.008,2.444c-.011,3.82-2.71,5.358-6.035,3.439l-31.5-18.189a13.222,13.222,0,0,1-6-10.39l.008-2.443c.011-3.811,2.718-5.354,6.042-3.434Z" transform="translate(-224.539 -53.867)"/>
      </g>
      <ellipse id="Ellipse_82" data-name="Ellipse 82" class="cls-22" cx="35.797" cy="21.271" rx="35.797" ry="21.271" transform="translate(122.014 353.08)"/>
      <g id="Group_9079" data-name="Group 9079" transform="translate(135.624 216.043)">
        <path id="Path_2707" data-name="Path 2707" class="cls-23" d="M273.24,282.954a16.959,16.959,0,0,0,2.673-2.137c.535-.714,1.247-4.811.535-4.989S275.2,278.5,275.2,278.5s-.179-7.483-1.069-8.553-3.741,4.276-3.92,5.167-.89,4.633-.89,4.633S270.39,282.954,273.24,282.954Z" transform="translate(-214.712 -269.194)"/>
        <path id="Path_2708" data-name="Path 2708" class="cls-16" d="M222.954,303.723s-5.587,5.6-1.667,12.37,30.646-9.978,33.5-12.473,21.56-19.243,22.628-21.381-1.247-4.276-4.1-3.919-14.253,12.472-23.163,18.173C250.151,296.494,228.9,301.331,222.954,303.723Z" transform="translate(-218.884 -268.479)"/>
        <path id="Path_2709" data-name="Path 2709" class="cls-16" d="M225.748,411.389s-.46,3.374.154,4.753a3.462,3.462,0,0,0,4.753.92,48.8,48.8,0,0,0,4.6-4.293s4.907-2.606,5.367-3.986-1.227-2.606-2.607-2.3-5.366,2.76-7.206,2.76S226.362,409.7,225.748,411.389Z" transform="translate(-218.404 -257.662)"/>
        <path id="Path_2710" data-name="Path 2710" class="cls-24" d="M221.074,344.791s4.291,70.818,4.826,72.87,6.1,3.229,7.133-.029c.655-2.069,2.271-67.6,2.271-67.6Z" transform="translate(-218.784 -262.865)"/>
        <path id="Path_2711" data-name="Path 2711" class="cls-16" d="M238.85,415.254a1.1,1.1,0,0,0-.376.825c-.01.974.036,3.145.587,3.99a4.122,4.122,0,0,0,5.328,1c1.987-1.078,8.1-5.646,9.34-6.658a3.653,3.653,0,0,0,1.235-1.954,1.109,1.109,0,0,0-.628-1.285,5.331,5.331,0,0,0-3.673-.423c-2.025.681-4.574,2.874-7.331,2.755A6.774,6.774,0,0,0,238.85,415.254Z" transform="translate(-217.316 -257.313)"/>
        <path id="Path_2712" data-name="Path 2712" class="cls-25" d="M249.362,345.751c-.31-2.943-3.832-3.9-7.076-2.9-6.189-.334-15.772-.069-16.108,4.734-.5,7.112,2.837,12.187,6.053,15.639,2.377,2.551,3.958,7.43,4.623,9.808.564,18.783,1.808,45.267,2.585,47.8,1.251,4.084,7.412,3.9,7.691-.077C248.378,407.324,249.362,345.751,249.362,345.751Z" transform="translate(-218.358 -263.061)"/>
        <path id="Path_2713" data-name="Path 2713" class="cls-16" d="M249.937,351.59c-.727,3.634-11.084,5.45-17.14,4.482s-12.579-3.941-12.363-10.962c0,0,1.151-16.789.691-19.778s-1.61-8.279-1.61-13.8a16.308,16.308,0,0,1,3.472-9.606s3.391-3.877,14.051-1.7c0,0,8.685,1.891,12.682,8.312,0,0,2.76,7.053,1.839,21.772S249.937,351.59,249.937,351.59Z" transform="translate(-218.916 -266.682)"/>
        <path id="Path_2714" data-name="Path 2714" class="cls-26" d="M228,293.036s.921,5.366,0,7.82c-.153,1.226,5.214,5.366,9.967,4.293,2.76-.614,2.606-1.994,2.606-1.994s-2.3-3.832-1.993-7.513S231.217,292.269,228,293.036Z" transform="translate(-218.2 -267.274)"/>
        <g id="Group_9078" data-name="Group 9078" transform="translate(2.438 2.303)">
          <path id="Path_2715" data-name="Path 2715" class="cls-23" d="M246.509,284.015a12.649,12.649,0,1,1-12.65-12.65A12.649,12.649,0,0,1,246.509,284.015Z" transform="translate(-221.211 -271.365)"/>
          <path id="Path_2716" data-name="Path 2716" class="cls-23" d="M245.974,284.094s.153,12.67-2.607,15.228-7-2.394-13.771-3.982c-6.774-1.74,5.491-14.915,5.491-14.915Z" transform="translate(-220.676 -270.6)"/>
        </g>
        <path id="Path_2717" data-name="Path 2717" class="cls-23" d="M270.5,301.8s-1.2-4.944-.8-5.345,2.005,1.737,2.005,1.737.8-5.078,1.469-5.613,3.341,2.138,3.742,3.608-1.6,7.35-2.405,7.484S270.9,304.2,270.5,301.8Z" transform="translate(-214.687 -267.278)"/>
        <path id="Path_2718" data-name="Path 2718" class="cls-16" d="M244.231,307s-5.612,2.673-3.207,9.622,20.312,9.621,22.449,7.483,11.492-13.1,14.166-21.381c0,0-1.069-3.208-5.345-1.871,0,0-10.157,12.829-11.76,14.165S246.9,306.464,244.231,307Z" transform="translate(-217.151 -266.601)"/>
        <path id="Path_2719" data-name="Path 2719" class="cls-27" d="M223.225,274.555a16.154,16.154,0,0,1,10.73-5.255c6.788-.438,10.073,1.752,12.7,1.533a3.959,3.959,0,0,1,4.161,5.255c-.876,3.285-2.847,6.569-7.226,6.569s-5.474-.657-5.474-.657,3.5,1.533,3.942,4.6a68.288,68.288,0,0,1,.437,7.665H241.4s-.876-5.037-2.628-5.037-1.752,5.474-.219,6.35l1.532.876s-2.94,5.448-4.535,5.68-6.851-3.71-6.851-3.71-8.76-4.16-9.635-10.948S223.225,274.555,223.225,274.555Z" transform="translate(-218.963 -269.241)"/>
      </g>
      <g id="Group_9090" data-name="Group 9090" transform="translate(0 179.772)">
        <g id="Group_9084" data-name="Group 9084" transform="translate(0 9.291)">
          <ellipse id="Ellipse_83" data-name="Ellipse 83" class="cls-22" cx="35.797" cy="21.271" rx="35.797" ry="21.271" transform="translate(9.155 128.773)"/>
          <g id="Group_9083" data-name="Group 9083">
            <g id="Group_9080" data-name="Group 9080" transform="translate(26.405 66.209)">
              <path id="Path_2720" data-name="Path 2720" class="cls-28" d="M118.627,329.408s2.406,15.234,4.41,23.652c0,0,.4,14.031.8,18.841s1.6,15.234,1.6,15.234a2.881,2.881,0,0,0,3.007.4s2-29.867,2.405-34.677,1.8-26.457,1.8-26.457S128.048,322.192,118.627,329.408Z" transform="translate(-118.212 -303.749)"/>
              <path id="Path_2721" data-name="Path 2721" class="cls-28" d="M132.49,323.856s2.406,15.234,4.41,23.652c0,0,.4,14.031.8,18.842s1.6,15.234,1.6,15.234a2.879,2.879,0,0,0,3.007.4s2-29.866,2.405-34.676.6-26.258.6-26.258S141.911,316.641,132.49,323.856Z" transform="translate(-117.042 -304.21)"/>
              <path id="Path_2722" data-name="Path 2722" class="cls-16" d="M121.666,310.5s-5.679,6.214-2.405,27.26c.2,3.007,2.2,10.757,2.2,10.757a34.21,34.21,0,0,0,16.236-2.2c8.819-3.407,9.02-5.212,9.02-5.212s.4-26.391-1.6-33.207S121.666,310.5,121.666,310.5Z" transform="translate(-118.244 -305.417)"/>
              <path id="Path_2723" data-name="Path 2723" class="cls-29" d="M141.913,375.843a3.1,3.1,0,0,0,1.4,2.707c1.6,1.2,4.61,3.407,5.111,4.711,0,1-3.808-.1-5.512-1a12.667,12.667,0,0,1-3.307-3.006l.1.9a1.7,1.7,0,0,1-1.1-.5c-.5-.5.1-3.608.1-3.608Z" transform="translate(-116.543 -299.473)"/>
              <path id="Path_2724" data-name="Path 2724" class="cls-29" d="M128.05,382.22a3.1,3.1,0,0,0,1.4,2.707c1.6,1.2,4.61,3.407,5.111,4.71,0,1-3.808-.1-5.512-1a12.647,12.647,0,0,1-3.307-3.006l.1.9a1.7,1.7,0,0,1-1.1-.5c-.5-.5.1-3.608.1-3.608Z" transform="translate(-117.713 -298.935)"/>
            </g>
            <path id="Path_2725" data-name="Path 2725" class="cls-30" d="M141.814,273.371s5.205.822,8.574,12.128c2.017,7.476,4.946,8.151,8.326,8.828s17.577,0,18.7,0,2.478,2.479.9,4.281-21.182,3.606-25.013,3.606-12.619-7.211-16.224-13.07S137.083,272.92,141.814,273.371Z" transform="translate(-90.373 -241.914)"/>
            <path id="Path_2726" data-name="Path 2726" class="cls-31" d="M142.858,247.651s5.182,6.647,4.056,14.083-7.661,7.1-8.788,11.154,3.155,9.915-2.7,13.746-8.562,2.929-10.14,11.041-7.21,12.394-16.9,13.295-16.45-10.816-13.971-19.379,11.041-5.858,12.845-12.844,1.127-12.506,7.21-15.21,3.831-12.958,9.915-16.112C130.594,244.2,138.351,242.468,142.858,247.651Z" transform="translate(-93.895 -244.361)"/>
            <g id="Group_9081" data-name="Group 9081" transform="translate(21.922 3.625)">
              <path id="Path_2727" data-name="Path 2727" class="cls-32" d="M127.656,271.29s-11.146,7.964-12.248,10.612-2.659,10.894.96,14.937c6.267,7,2.493,19.03,3.32,22.566s9.33,3.978,15.233,2.836,11.369-4.161,11.145-11.043,1.6-16.324,1.971-19.424a53.744,53.744,0,0,0-1.472-16.108c-.3-1.1-4.01-2.258-4.01-2.258S138.643,270.824,127.656,271.29Z" transform="translate(-114.111 -245.718)"/>
              <path id="Path_2728" data-name="Path 2728" class="cls-33" d="M136.338,270.31a1.142,1.142,0,0,0,0,.359c.123.817.529,2.906.605,3.779.073.836-.876,2.286-3.135,2.239s-6.09-.99-7.365-3.68a62.289,62.289,0,0,0-.375-7.948Z" transform="translate(-113.101 -246.239)"/>
              <path id="Path_2729" data-name="Path 2729" class="cls-28" d="M143.033,256.757c-1.209-6.46-6.327-10.127-12.116-8.773,0,0-6.275.629-9.062,6.14s1.307,10.147,3.929,13.069c1.106,1.2,1.941,2.125,2.468,2.715.191.222.378.449.578.651l.055.064.007-.005a13.106,13.106,0,0,0,5.363,3.255c2.524.753,5.51.322,7.121-1.4S144.242,263.217,143.033,256.757Z" transform="translate(-113.536 -247.704)"/>
            </g>
            <path id="Path_2730" data-name="Path 2730" class="cls-31" d="M144.189,261.228s-4.62.451-7.324-2.7-6.535,0-9.689-2.7a10.015,10.015,0,0,1,0,6.76,37.029,37.029,0,0,0-1.8,8.564l-5.858-9.239v-8.112l7.436-6.986,9.915-.45,4.732,4.507S144.639,257.847,144.189,261.228Z" transform="translate(-91.733 -244.193)"/>
            <path id="Path_2731" data-name="Path 2731" class="cls-34" d="M118.569,296.372l14.005,4.412,13.044-3.645c-.191.576-3.645,11.126-11.126,13.045-5.379,1.378-11.73-3.378-14.887-6.167a18.9,18.9,0,0,0-1.359-5.71Z" transform="translate(-91.839 -239.971)"/>
            <g id="Group_9082" data-name="Group 9082" transform="translate(22.288 43.062)">
              <path id="Path_2732" data-name="Path 2732" class="cls-35" d="M119.509,284.2s-7.436-1.8-4.281,8.338,13.745,17.576,17.576,17.125,19.379-16.9,19.379-18.928a2.923,2.923,0,0,0-3.606-2.929c-1.8.451-13.746,13.295-14.873,12.844S125.592,288.478,119.509,284.2Z" transform="translate(-114.448 -284.072)"/>
              <path id="Path_2733" data-name="Path 2733" class="cls-28" d="M147.42,291.438a2.232,2.232,0,0,1-1.489-2.854c.621-2.234,4.716-3.971,5.336-4.1s6.7,1.117,6.95,1.862-1.117,1.117-2.607.744a24.8,24.8,0,0,0-3.723-.5s1.614,1.737,1.489,2.481a4.692,4.692,0,0,1-2.233,2.854c-1.242.62-2.731-.744-2.731-.744Z" transform="translate(-111.8 -284.037)"/>
            </g>
            <path id="Path_2734" data-name="Path 2734" class="cls-23" d="M172.443,293.276s4.913-4.183,5.188-3.434-1.678,2.824-1.678,2.824,6.577-2.519,6.654-1.665-3.472,3.533-4.41,4.166a24.042,24.042,0,0,1-4.289,1.542S172.069,294.246,172.443,293.276Z" transform="translate(-87.269 -240.53)"/>
          </g>
        </g>
        <g id="Group_9085" data-name="Group 9085" class="cls-36" transform="translate(59.948)">
          <path id="Path_2735" data-name="Path 2735" class="cls-37" d="M152.1,260.492a6.489,6.489,0,0,0-2.927,5.087l.2,69.085c.013,4.4,3.143,6.2,6.954,4l41.153-23.759a6.49,6.49,0,0,0,2.928-5.087l-.2-69.085c-.012-4.4-3.142-6.2-6.954-4Z" transform="translate(-149.177 -235.794)"/>
        </g>
        <g id="Group_9089" data-name="Group 9089" transform="translate(68.318 30.242)">
          <g id="Group_9088" data-name="Group 9088">
            <g id="Group_9086" data-name="Group 9086">
              <path id="Path_2736" data-name="Path 2736" class="cls-17" d="M157.767,283.175a1.917,1.917,0,0,0-.872,1.505l.011,3.669c0,.556.394.78.877.5l33.555-19.373a1.918,1.918,0,0,0,.872-1.51L192.2,264.3c0-.551-.394-.775-.877-.5Z" transform="translate(-156.895 -263.682)"/>
            </g>
            <g id="Group_9087" data-name="Group 9087" transform="translate(0.023 7.984)">
              <path id="Path_2737" data-name="Path 2737" class="cls-17" d="M157.788,290.538a1.918,1.918,0,0,0-.872,1.509l.011,3.669c0,.555.394.775.877.5l33.555-19.373a1.911,1.911,0,0,0,.871-1.505l-.01-3.669c0-.556-.394-.78-.877-.5Z" transform="translate(-156.916 -271.045)"/>
            </g>
          </g>
          <path id="Path_2738" data-name="Path 2738" class="cls-17" d="M169.96,295.013a4.554,4.554,0,0,0-2.066,3.577l0,.842c0,1.316.934,1.847,2.079,1.185l10.853-6.266a4.554,4.554,0,0,0,2.068-3.579l0-.843c0-1.312-.937-1.845-2.082-1.183Z" transform="translate(-155.967 -261.59)"/>
        </g>
      </g>
    </g>
  </g>
</svg>
