<svg xmlns="http://www.w3.org/2000/svg" xmlns:xlink="http://www.w3.org/1999/xlink" viewBox="0 0 878.024 768.055">
  <defs>
    <style>
      .cls-1 {
        fill: rgba(49,51,102,0.15);
      }

      .cls-2 {
        fill: #d7dcf7;
      }

      .cls-3 {
        fill: #868eba;
      }

      .cls-4 {
        fill: #313366;
      }

      .cls-5 {
        fill: #fff;
      }

      .cls-6 {
        fill: #cadfef;
      }

      .cls-7 {
        fill: #191a36;
      }

      .cls-8 {
        fill: #c38567;
      }

      .cls-9 {
        fill: #f07a3f;
      }

      .cls-10 {
        fill: #241c2b;
      }

      .cls-11 {
        fill: #3a4371;
      }

      .cls-12 {
        fill: #ac755a;
      }

      .cls-13 {
        fill: #072042;
      }

      .cls-14 {
        fill: #f16722;
      }

      .cls-15 {
        fill: #ffb398;
      }

      .cls-16 {
        fill: #0e0e0e;
      }

      .cls-17 {
        fill: #faaaab;
      }

      .cls-18 {
        fill: #d66e3a;
      }

      .cls-19 {
        clip-path: url(#clip-path);
      }

      .cls-20 {
        clip-path: url(#clip-path-2);
      }
    </style>
    <clipPath id="clip-path">
      <path id="Path_2400" data-name="Path 2400" d="M314.89,168.017A9.175,9.175,0,1,0,316,155.09,9.177,9.177,0,0,0,314.89,168.017Z" transform="translate(-312.731 -152.931)"/>
    </clipPath>
    <clipPath id="clip-path-2">
      <path id="Path_2423" data-name="Path 2423" d="M246.355,297.377a9.27,9.27,0,1,1-7.578-10.7A9.166,9.166,0,0,1,246.355,297.377Z" transform="translate(-227.935 -286.535)"/>
    </clipPath>
  </defs>
  <g id="Group_8810" data-name="Group 8810" transform="translate(79.438 30)">
    <path id="Path_2359" data-name="Path 2359" class="cls-1" d="M641.228,108S436.614,150.183,448.666,347.127c12.052,196.67-52.865,234.47-147.64,278.3-91.487,42.183-167.361,102.718-150.653,250.631h875.7V108Z" transform="translate(-227.491 -138)"/>
    <path id="Path_2360" data-name="Path 2360" class="cls-2" d="M584.4,320.921H264.794A24.351,24.351,0,0,1,240.5,296.627V283.7H608.916v12.927A24.689,24.689,0,0,1,584.4,320.921Z" transform="translate(23.961 185.176)"/>
    <rect id="Rectangle_1595" data-name="Rectangle 1595" class="cls-3" width="75.555" height="32.54" transform="translate(411.56 506.097)"/>
    <path id="Path_2361" data-name="Path 2361" class="cls-4" d="M608.816,402.7H240.4V209.911A22.448,22.448,0,0,1,262.911,187.4H586.306a22.448,22.448,0,0,1,22.511,22.511Z" transform="translate(23.838 66.845)"/>
    <rect id="Rectangle_1596" data-name="Rectangle 1596" class="cls-2" width="340.779" height="186.548" transform="translate(279.394 269.624)"/>
    <path id="Path_2362" data-name="Path 2362" class="cls-5" d="M335.893,295.846a8.246,8.246,0,0,1-16.493,0,8.374,8.374,0,0,1,8.247-8.247A8.227,8.227,0,0,1,335.893,295.846Z" transform="translate(120.911 189.968)"/>
    <path id="Path_2363" data-name="Path 2363" class="cls-5" d="M476.317,352.788H322.309a6.944,6.944,0,0,1-6.909-6.909V208.809a6.944,6.944,0,0,1,6.909-6.909H476.317a6.944,6.944,0,0,1,6.909,6.909v137.07A6.944,6.944,0,0,1,476.317,352.788Z" transform="translate(115.996 84.662)"/>
    <path id="Path_2364" data-name="Path 2364" class="cls-5" d="M362.844,314.45H264.109a6.944,6.944,0,0,1-6.909-6.909V240.009a6.944,6.944,0,0,1,6.909-6.909h98.735a6.944,6.944,0,0,1,6.909,6.909v67.532A6.944,6.944,0,0,1,362.844,314.45Z" transform="translate(44.482 123)"/>
    <g id="Group_8772" data-name="Group 8772" transform="translate(668.578 320.663)">
      <g id="Group_8771" data-name="Group 8771">
        <path id="Path_2365" data-name="Path 2365" class="cls-4" d="M427.573,292.533h0a11.488,11.488,0,0,0,1.783-14.041h0a1.725,1.725,0,0,1-.223-.669h0a23.306,23.306,0,0,1,4.458-26.968c3.789-5.126.891-11.812.891-11.812h0a14.984,14.984,0,0,1-.891-5.349,16.493,16.493,0,1,1,32.986,0,19.157,19.157,0,0,1-.891,5.349h0s-2.9,6.909.891,11.813a23.306,23.306,0,0,1,4.458,26.968h0v.223c-.223.223-.223.446-.446.669a11.451,11.451,0,0,0,1.56,13.15l.446.446.223.223h0a28,28,0,0,1,6.241,17.83,28.528,28.528,0,1,1-57.057,0C421.109,303.676,423.561,297.436,427.573,292.533Z" transform="translate(-421.818 -217.2)"/>
        <path id="Path_2366" data-name="Path 2366" d="M431.89,288.374l6.909,6.909V270.989l-8.692-8.469a1.1,1.1,0,0,1,1.56-1.56l6.909,6.909V234.214a1.114,1.114,0,0,1,2.229,0V254.5l6.909-6.686a1.1,1.1,0,0,1,1.56,1.56l-8.469,8.469v24.516l7.578-7.578a1.1,1.1,0,0,1,1.56,1.56l-9.138,9.138v64.857a1.114,1.114,0,0,1-2.229,0V298.626l-8.692-8.469a1.077,1.077,0,0,1,0-1.56C430.776,287.928,431.444,287.928,431.89,288.374Z" transform="translate(-412.317 -197.663)"/>
      </g>
      <path id="Path_2367" data-name="Path 2367" class="cls-6" d="M467.781,288.075H430.337a1.337,1.337,0,0,1,0-2.675h37.443a1.438,1.438,0,0,1,1.337,1.337A1.182,1.182,0,0,1,467.781,288.075Z" transform="translate(-412.993 -133.398)"/>
    </g>
    <g id="Group_8774" data-name="Group 8774" transform="translate(311.934 365.684)">
      <g id="Group_8773" data-name="Group 8773" transform="translate(2.897 43.238)">
        <path id="Path_2368" data-name="Path 2368" class="cls-2" d="M347.348,261.48H265.329a2.233,2.233,0,0,1-2.229-2.229v-.223a2.233,2.233,0,0,1,2.229-2.229h82.019a2.233,2.233,0,0,1,2.229,2.229v.223A2.106,2.106,0,0,1,347.348,261.48Z" transform="translate(-263.1 -256.8)"/>
        <path id="Path_2369" data-name="Path 2369" class="cls-2" d="M312.133,266.68h-46.8a2.233,2.233,0,0,1-2.229-2.229v-.223A2.233,2.233,0,0,1,265.329,262h46.8a2.233,2.233,0,0,1,2.229,2.229v.223A2.4,2.4,0,0,1,312.133,266.68Z" transform="translate(-263.1 -250.41)"/>
      </g>
      <circle id="Ellipse_62" data-name="Ellipse 62" class="cls-2" cx="15.379" cy="15.379" r="15.379"/>
    </g>
    <path id="Path_2370" data-name="Path 2370" class="cls-6" d="M680.35,322.329H222.114a1.114,1.114,0,0,1,0-2.229H680.35a1.114,1.114,0,0,1,0,2.229Z" transform="translate(0 229.903)"/>
    <path id="Path_2371" data-name="Path 2371" class="cls-4" d="M400.99,293.819h-35.66A9.988,9.988,0,0,1,355.3,283.79v-35.66A9.988,9.988,0,0,1,365.329,238.1h35.66a9.988,9.988,0,0,1,10.029,10.029v35.66A9.988,9.988,0,0,1,400.99,293.819Z" transform="translate(165.024 129.144)"/>
    <g id="Group_8775" data-name="Group 8775" transform="translate(479.315 568.502)">
      <path id="Path_2372" data-name="Path 2372" class="cls-7" d="M388.608,358.668H344.032a7.182,7.182,0,0,1-7.132-7.132v-12.7a7.182,7.182,0,0,1,7.132-7.132h44.575a7.182,7.182,0,0,1,7.132,7.132v12.7A7.039,7.039,0,0,1,388.608,358.668Z" transform="translate(-336.9 -324.345)"/>
      <path id="Path_2373" data-name="Path 2373" class="cls-4" d="M388.608,355.368H344.032a7.182,7.182,0,0,1-7.132-7.132v-12.7a7.182,7.182,0,0,1,7.132-7.132h44.575a7.182,7.182,0,0,1,7.132,7.132v12.7A6.908,6.908,0,0,1,388.608,355.368Z" transform="translate(-336.9 -328.4)"/>
    </g>
    <g id="Group_8785" data-name="Group 8785" transform="translate(549.298 409.814)">
      <g id="Group_8776" data-name="Group 8776">
        <path id="Path_2374" data-name="Path 2374" class="cls-8" d="M373.2,257.2a5.341,5.341,0,0,1,5.126,5.126,5,5,0,0,1-4.9,5.126,5.341,5.341,0,0,1-5.126-5.126A5,5,0,0,1,373.2,257.2Z" transform="translate(-368.3 -257.2)"/>
      </g>
      <g id="Group_8784" data-name="Group 8784" transform="translate(29.866 19.39)">
        <g id="Group_8778" data-name="Group 8778" transform="translate(25.814 16.493)">
          <path id="Path_2375" data-name="Path 2375" class="cls-8" d="M417.542,274.637a4.307,4.307,0,0,0-6.241,0,4.854,4.854,0,0,0-.223,6.686,4.307,4.307,0,0,0,6.241,0A5.091,5.091,0,0,0,417.542,274.637Z" transform="translate(-372.927 -273.3)"/>
          <g id="Group_8777" data-name="Group 8777" transform="translate(0 4.903)">
            <path id="Path_2376" data-name="Path 2376" class="cls-9" d="M415.61,291.993l-16.27-14.041c-2.006-1.337-4.458-.446-5.572,1.783a5.226,5.226,0,0,0,1.783,6.463l16.27,14.041A7.571,7.571,0,0,0,421.85,298.9l13.6-16.939-6.463-6.463Z" transform="translate(-393.282 -275.5)"/>
          </g>
        </g>
        <path id="Path_2377" data-name="Path 2377" class="cls-8" d="M386.4,338.912l6.686-.223-.223-11.59-6.463.223Z" transform="translate(-375.925 -190.699)"/>
        <path id="Path_2378" data-name="Path 2378" class="cls-10" d="M381.7,339.1l17.384-.223V331.3H388.609c-4.012.223-6.909,3.566-6.909,7.8Z" transform="translate(-381.7 -185.538)"/>
        <path id="Path_2379" data-name="Path 2379" class="cls-8" d="M403.8,338.912l-6.463-.223L396,327.1l6.686.223Z" transform="translate(-364.129 -190.699)"/>
        <path id="Path_2380" data-name="Path 2380" class="cls-10" d="M413.884,339.1l-16.716-.223L396.5,331.3h10.7c3.789.223,6.686,3.566,6.686,7.8Z" transform="translate(-363.514 -185.538)"/>
        <g id="Group_8780" data-name="Group 8780" transform="translate(5.349 57.725)">
          <g id="Group_8779" data-name="Group 8779" transform="translate(4.903)">
            <path id="Path_2381" data-name="Path 2381" class="cls-11" d="M386.3,292.692l11.367-.446h1.114l11.367-.446.223,16.493-23.4.891Z" transform="translate(-386.3 -291.8)"/>
          </g>
          <path id="Path_2382" data-name="Path 2382" class="cls-11" d="M399.9,375.925h10.252L404.8,333.132,403.021,291.9,392.1,293.683l1.56,39.9a2.827,2.827,0,0,0,.223,1.337Z" transform="translate(-374.27 -291.677)"/>
          <path id="Path_2383" data-name="Path 2383" class="cls-11" d="M387,375.01H396.8l-1.56-40.786,5.572-40.787L388.78,292.1l-4.68,41.455v1.337Z" transform="translate(-384.1 -291.431)"/>
        </g>
        <g id="Group_8783" data-name="Group 8783" transform="translate(8.915)">
          <g id="Group_8782" data-name="Group 8782">
            <rect id="Rectangle_1597" data-name="Rectangle 1597" class="cls-12" width="6.686" height="8.915" transform="translate(10.029 16.493)"/>
            <g id="Group_8781" data-name="Group 8781" transform="translate(2.229)">
              <path id="Path_2384" data-name="Path 2384" class="cls-8" d="M391.158,272.029a2.229,2.229,0,1,1-2.229-2.229A2.4,2.4,0,0,1,391.158,272.029Z" transform="translate(-386.7 -261.108)"/>
              <path id="Path_2385" data-name="Path 2385" class="cls-8" d="M399.158,272.029a2.229,2.229,0,1,1-2.229-2.229A2.233,2.233,0,0,1,399.158,272.029Z" transform="translate(-376.87 -261.108)"/>
              <path id="Path_2386" data-name="Path 2386" class="cls-13" d="M405.876,275.038a9.138,9.138,0,1,1-9.138-9.138A9.038,9.038,0,0,1,405.876,275.038Z" transform="translate(-385.594 -265.9)"/>
            </g>
            <path id="Path_2387" data-name="Path 2387" class="cls-14" d="M410.885,313.22H386.591l-.891-28.528c0-4.68,2.9-8.692,7.355-8.692H404.2c4.458,0,7.355,3.789,7.355,8.692Z" transform="translate(-385.7 -253.489)"/>
          </g>
        </g>
      </g>
      <path id="Path_2388" data-name="Path 2388" class="cls-9" d="M406.306,306.5l-18.053-18.722-.223-.223L370.2,265.941l7.578-6.241,17.607,21.4,18.053,18.722Z" transform="translate(-365.965 -254.128)"/>
    </g>
    <g id="Group_8797" data-name="Group 8797" transform="translate(327.862 177.422)">
      <g id="Group_8787" data-name="Group 8787" transform="translate(150.561 92.201)">
        <g id="Group_8786" data-name="Group 8786">
          <path id="Path_2389" data-name="Path 2389" class="cls-8" d="M342.8,205.89l6.241-.223L346.363,194.3l-6.463.446Z" transform="translate(-332.322 -194.3)"/>
          <path id="Path_2390" data-name="Path 2390" class="cls-10" d="M336.5,205.978l16.939-.223V198.4H343.186a7.366,7.366,0,0,0-6.686,7.578Z" transform="translate(-336.5 -189.262)"/>
        </g>
      </g>
      <g id="Group_8789" data-name="Group 8789" transform="translate(121.353 60.33)">
        <g id="Group_8788" data-name="Group 8788">
          <path id="Path_2391" data-name="Path 2391" class="cls-15" d="M329.889,189.807l6.464-.223L332.786,180l-6.686.223Z" transform="translate(-320.071 -180)"/>
          <path id="Path_2392" data-name="Path 2392" class="cls-16" d="M323.406,191.678l16.939-.223V184.1H330.092a6.943,6.943,0,0,0-6.686,7.578Z" transform="translate(-323.395 -174.962)"/>
        </g>
      </g>
      <path id="Path_2393" data-name="Path 2393" class="cls-11" d="M371.346,177.453l-42.57,13.373,3.566-8.692L344.6,210.439l-10.921.669L320.307,187.26a6.278,6.278,0,0,1,2.9-8.246l.669-.223,40.118-19.39Z" transform="translate(-206.52 -144.983)"/>
      <g id="Group_8790" data-name="Group 8790" transform="translate(76.895 9.291)">
        <path id="Path_2394" data-name="Path 2394" class="cls-17" d="M311.142,177.337a4.307,4.307,0,0,0-6.241,0,4.58,4.58,0,0,0-.223,6.463,4.307,4.307,0,0,0,6.241,0A4.58,4.58,0,0,0,311.142,177.337Z" transform="translate(-303.448 -133.876)"/>
        <path id="Path_2395" data-name="Path 2395" class="cls-18" d="M311.149,205.687l-5.349-8.024,22.734-15.379L343.689,157.1l8.246,4.9-15.6,26.077A9.7,9.7,0,0,1,335,189.64Z" transform="translate(-300.557 -157.1)"/>
      </g>
      <g id="Group_8794" data-name="Group 8794" transform="translate(96.402)">
        <path id="Path_2396" data-name="Path 2396" class="cls-12" d="M321.8,157.1l5.349.223,1.783,6.686-10.029-1.56Z" transform="translate(-303.967 -147.809)"/>
        <g id="Group_8793" data-name="Group 8793">
          <path id="Path_2397" data-name="Path 2397" class="cls-8" d="M312.423,159.183l1.56-1.783,2.229,2.006-1.56,1.337-1.56-.223A.794.794,0,0,1,312.423,159.183Z" transform="translate(-312.2 -147.44)"/>
          <g id="Group_8792" data-name="Group 8792" transform="translate(1.184)">
            <path id="Path_2398" data-name="Path 2398" class="cls-8" d="M314.89,168.017A9.175,9.175,0,1,0,316,155.09,9.177,9.177,0,0,0,314.89,168.017Z" transform="translate(-312.731 -152.931)"/>
            <g id="Group_8791" data-name="Group 8791" class="cls-19">
              <path id="Path_2399" data-name="Path 2399" class="cls-13" d="M313.3,153.714l19.167,14.71-3.12-15.824Z" transform="translate(-312.033 -153.338)"/>
            </g>
          </g>
          <path id="Path_2401" data-name="Path 2401" class="cls-8" d="M317.813,159.37a2.526,2.526,0,1,0,.223-3.566A2.708,2.708,0,0,0,317.813,159.37Z" transform="translate(-306 -150.302)"/>
        </g>
      </g>
      <path id="Path_2402" data-name="Path 2402" class="cls-14" d="M354.117,157.108l.223,19.167-27.414,4.235L321.8,158.668l2.229-.892a22.817,22.817,0,0,1,13.373-1.56l4.235.446Z" transform="translate(-204.002 -149.377)"/>
      <path id="Path_2403" data-name="Path 2403" class="cls-11" d="M336.523,175.57l19.167,1.337v-1.783A18.844,18.844,0,0,0,336.3,156.4h0Z" transform="translate(-186.185 -148.671)"/>
      <path id="Path_2404" data-name="Path 2404" class="cls-11" d="M359.223,168.672,345.85,196.754l.223-3.566,9.807,44.8-10.252.223-12.035-41.9a5.433,5.433,0,0,1,0-2.674l.223-1.114,6.463-29.42Z" transform="translate(-189.717 -140.436)"/>
      <g id="Group_8795" data-name="Group 8795" transform="translate(0 35.694)">
        <path id="Path_2405" data-name="Path 2405" class="cls-5" d="M405.021,221.442,273.746,196.257a5.876,5.876,0,0,1-4.68-6.909l2.9-15.6a5.876,5.876,0,0,1,6.909-4.68l131.275,25.185a5.876,5.876,0,0,1,4.68,6.909l-2.9,15.6A6.176,6.176,0,0,1,405.021,221.442Z" transform="translate(-268.947 -168.947)"/>
        <path id="Path_2406" data-name="Path 2406" class="cls-11" d="M337.984,198.235l-3.12-5.126a7.891,7.891,0,0,0,2.006-3.566,6.469,6.469,0,1,0-7.578,5.126,8.3,8.3,0,0,0,4.012-.446l3.12,4.9Zm-3.343-8.915a4.416,4.416,0,1,1-3.566-5.126A4.349,4.349,0,0,1,334.64,189.32Z" transform="translate(-201.241 -153.095)"/>
      </g>
      <g id="Group_8796" data-name="Group 8796" transform="translate(104.086 15.754)">
        <path id="Path_2407" data-name="Path 2407" class="cls-8" d="M323.342,186.137a4.307,4.307,0,0,0-6.241,0,4.58,4.58,0,0,0-.223,6.463,4.307,4.307,0,0,0,6.241,0A4.58,4.58,0,0,0,323.342,186.137Z" transform="translate(-315.648 -129.526)"/>
        <path id="Path_2408" data-name="Path 2408" class="cls-9" d="M324.824,219.062l-8.024-5.349,17.607-25.408-4.68-26.745,9.584-1.56,4.9,28.528a4.955,4.955,0,0,1-.669,3.566Z" transform="translate(-314.232 -160)"/>
      </g>
    </g>
    <path id="Path_2409" data-name="Path 2409" class="cls-2" d="M433.05,325.921H291.3A10.939,10.939,0,0,1,302.221,315H422.129a10.939,10.939,0,0,1,10.921,10.921Z" transform="translate(86.383 223.637)"/>
    <g id="Group_8805" data-name="Group 8805" transform="translate(222.351 475.196)">
      <g id="Group_8798" data-name="Group 8798" transform="translate(62.615 110.691)">
        <path id="Path_2410" data-name="Path 2410" class="cls-8" d="M251.037,351.133c0-.446-1.337-13.6-1.337-13.6l6.909-1.337,1.337,13.6Z" transform="translate(-249.7 -336.2)"/>
        <path id="Path_2411" data-name="Path 2411" class="cls-16" d="M270.159,345.151l-18.945,3.789-1.114-5.795,13.15-2.675a5.822,5.822,0,0,1,6.909,4.68Z" transform="translate(-249.209 -331.11)"/>
      </g>
      <path id="Path_2412" data-name="Path 2412" class="cls-11" d="M244.9,309.8l26.745,20.5.891.669a6.886,6.886,0,0,1,2.452,4.458L278.33,373.1l-9.584,1.337-6.241-38.558L265.849,341,234.2,327.853Z" transform="translate(-206.131 -257.949)"/>
      <path id="Path_2413" data-name="Path 2413" class="cls-18" d="M237.751,339.753l22.956-8.247a3.714,3.714,0,0,0,2.452-4.458L253.352,295.4l-18.5,5.795a12.458,12.458,0,0,0-8.246,15.6Z" transform="translate(-216.146 -275.643)"/>
      <path id="Path_2414" data-name="Path 2414" class="cls-4" d="M287.487,339.95l-31.649,8.024a9.08,9.08,0,0,1-11.144-6.686l-8.024-31.649a9.08,9.08,0,0,1,6.686-11.144l31.649-8.024a9.08,9.08,0,0,1,11.144,6.686l8.024,31.649A9.08,9.08,0,0,1,287.487,339.95Z" transform="translate(-203.476 -282.081)"/>
      <g id="Group_8799" data-name="Group 8799" transform="translate(21.382 123.172)">
        <path id="Path_2415" data-name="Path 2415" class="cls-8" d="M231.2,355.173c.223-.446,2.006-13.373,2.006-13.373l6.909.446-2.006,13.373Z" transform="translate(-231.2 -341.8)"/>
        <path id="Path_2416" data-name="Path 2416" class="cls-10" d="M250.59,352.818H231.2V346.8h13.373a5.993,5.993,0,0,1,6.018,6.018Z" transform="translate(-231.2 -335.656)"/>
      </g>
      <path id="Path_2417" data-name="Path 2417" class="cls-11" d="M247.124,312.1l3.343,26.968.223,1.337a6.06,6.06,0,0,1,0,2.006L242,384.089l-10.252-.669,5.795-42.347.223,3.343-6.463-26.3Z" transform="translate(-209.695 -255.123)"/>
      <g id="Group_8800" data-name="Group 8800" transform="translate(50.133 37.878)">
        <path id="Path_2418" data-name="Path 2418" class="cls-8" d="M256.4,309.258a4.595,4.595,0,1,1-3.343-5.572A4.775,4.775,0,0,1,256.4,309.258Z" transform="translate(-240.131 -303.53)"/>
        <path id="Path_2419" data-name="Path 2419" class="cls-8" d="M253.238,304.5l-9.138,4.9,2.9,4.235,10.7-4.9Z" transform="translate(-244.1 -302.339)"/>
      </g>
      <g id="Group_8804" data-name="Group 8804">
        <g id="Group_8803" data-name="Group 8803">
          <path id="Path_2420" data-name="Path 2420" class="cls-8" d="M238.443,289.769l-2.229-.669L235.1,292l2.006.446,1.337-.891C239.335,290.883,239.112,289.991,238.443,289.769Z" transform="translate(-205.025 -283.384)"/>
          <g id="Group_8802" data-name="Group 8802" transform="translate(14.106)">
            <path id="Path_2421" data-name="Path 2421" class="cls-8" d="M246.355,297.377a9.27,9.27,0,1,1-7.578-10.7A9.166,9.166,0,0,1,246.355,297.377Z" transform="translate(-227.935 -286.535)"/>
            <g id="Group_8801" data-name="Group 8801" class="cls-20">
              <path id="Path_2422" data-name="Path 2422" class="cls-13" d="M241.087,285.4l-9.138,22.734L226.6,292.755Z" transform="translate(-229.577 -287.931)"/>
            </g>
          </g>
          <path id="Path_2424" data-name="Path 2424" class="cls-12" d="M234.242,292.613a2.585,2.585,0,1,1-2.229-2.9A2.518,2.518,0,0,1,234.242,292.613Z" transform="translate(-212.414 -282.663)"/>
          <path id="Path_2425" data-name="Path 2425" class="cls-13" d="M237.194,300.059a8.136,8.136,0,1,1-4.235-10.7A8.01,8.01,0,0,1,237.194,300.059Z" transform="translate(-221.606 -283.868)"/>
        </g>
        <path id="Path_2426" data-name="Path 2426" class="cls-12" d="M238.078,294.2c0,.446.891,12.7.891,12.7l-8.469-4.68.223-7.8Z" transform="translate(-210.678 -277.118)"/>
      </g>
      <path id="Path_2427" data-name="Path 2427" class="cls-14" d="M248.329,333.742a5.2,5.2,0,0,1-4.458-2.229L227.6,308.334a5.079,5.079,0,0,1,1.337-7.132h0a5.079,5.079,0,0,1,7.132,1.337l13.6,19.39L269.5,310.563l5.126,8.915L250.558,333.3A6.593,6.593,0,0,1,248.329,333.742Z" transform="translate(-215.357 -269.632)"/>
    </g>
    <g id="Group_8806" data-name="Group 8806" transform="translate(302.796 309.073)">
      <path id="Path_2428" data-name="Path 2428" class="cls-5" d="M345.737,216.9H259.929a2.233,2.233,0,0,1-2.229-2.229v-.446A2.233,2.233,0,0,1,259.929,212h85.808a2.233,2.233,0,0,1,2.229,2.229v.223A2.167,2.167,0,0,1,345.737,216.9Z" transform="translate(-257.7 -212)"/>
      <path id="Path_2429" data-name="Path 2429" class="cls-5" d="M345.737,230.48H259.929a2.233,2.233,0,0,1-2.229-2.229v-.223a2.233,2.233,0,0,1,2.229-2.229h85.808a2.233,2.233,0,0,1,2.229,2.229v.223C348.188,229.589,347.074,230.48,345.737,230.48Z" transform="translate(-257.7 -195.043)"/>
      <path id="Path_2430" data-name="Path 2430" class="cls-5" d="M366.118,223.58H260.029a2.233,2.233,0,0,1-2.229-2.229v-.223a2.233,2.233,0,0,1,2.229-2.229h106.09a2.233,2.233,0,0,1,2.229,2.229v.223A2.106,2.106,0,0,1,366.118,223.58Z" transform="translate(-257.577 -203.521)"/>
    </g>
    <g id="Group_8809" data-name="Group 8809" transform="translate(489.344 133)">
      <path id="Path_2431" data-name="Path 2431" class="cls-5" d="M398.457,150.162H341.4S345.635,133,360.345,133a21.92,21.92,0,0,1,18.945,10.475c4.235-1.56,13.6-3.566,19.167,6.686" transform="translate(-341.4 -133)"/>
      <g id="Group_8808" data-name="Group 8808" transform="translate(125.257 58.394)">
        <g id="Group_8807" data-name="Group 8807">
          <path id="Path_2432" data-name="Path 2432" class="cls-5" d="M412.979,172.8a15.642,15.642,0,0,1,7.8,2.006A25.207,25.207,0,0,1,442.4,162.1a24.858,24.858,0,0,1,20.728,11.144,19.324,19.324,0,0,1,18.5-14.041c10.029,0,18.053,7.578,19.167,17.607a9.141,9.141,0,0,1,2.452-.223,16,16,0,0,1,14.041,8.692H397.6A15.764,15.764,0,0,1,412.979,172.8Z" transform="translate(-397.6 -159.2)"/>
        </g>
      </g>
    </g>
  </g>
</svg>
