<svg xmlns="http://www.w3.org/2000/svg" width="160.898" height="46.043" viewBox="0 0 160.898 46.043">
  <defs>
    <style>
      .cls-1, .cls-3 {
        fill: #fff;
      }

      .cls-1 {
        stroke: #007aaa;
      }

      .cls-2 {
        fill: #007aaa;
      }

      .cls-3 {
        font-size: 14px;
        font-family: OpenSans-Regular, Open Sans;
      }

      .cls-4 {
        stroke: none;
      }

      .cls-5 {
        fill: none;
      }
    </style>
  </defs>
  <g id="Group_9247" data-name="Group 9247" transform="translate(-340 -48)">
    <g id="Group_8401" data-name="Group 8401" transform="translate(340 48)">
      <g id="TWITTER" class="cls-1" transform="translate(0 0.171)">
        <rect class="cls-4" width="86.063" height="45.873" rx="2"/>
        <rect class="cls-5" x="0.5" y="0.5" width="85.063" height="44.873" rx="1.5"/>
      </g>
      <path id="TWITTER-2" data-name="TWITTER" class="cls-2" d="M0,0H108.608V45.873H0Z" transform="translate(52.29)"/>
    </g>
    <g id="linkedin_1_" data-name="linkedin (1)" transform="translate(352.348 59.147)">
      <path id="Path_844" data-name="Path 844" class="cls-2" d="M3.032,5.424A3.089,3.089,0,0,1,6.064,8.495,3.032,3.032,0,1,1,0,8.495,3.006,3.006,0,0,1,3.032,5.424" transform="translate(0 -5.424)"/>
      <path id="Path_845" data-name="Path 845" class="cls-2" d="M12.3,181.43H8.831a.874.874,0,0,1-.866-.877V165.2a.839.839,0,0,1,.823-.877H12.3a.874.874,0,0,1,.866.877v15.4a.866.866,0,0,1-.866.833" transform="translate(-7.574 -156.575)"/>
      <path id="Path_846" data-name="Path 846" class="cls-2" d="M192.144,161.284a5.587,5.587,0,0,0-5.587-5.791h-.91a5.252,5.252,0,0,0-4.331,2.193l-.433.439V156.37a.56.56,0,0,0-.433-.439H176.12a.463.463,0,0,0-.433.395V172.69c0,.175.26.351.433.351h4.764c.173,0,.433-.175.433-.351v-9.476a2.954,2.954,0,0,1,2.815-3.027,2.768,2.768,0,0,1,2.858,2.983V172.6a.56.56,0,0,0,.433.439h4.331a.56.56,0,0,0,.433-.439V161.284Z" transform="translate(-166.592 -148.186)"/>
    </g>
    <text id="LinkedIn" class="cls-3" transform="translate(414.502 79.872)"><tspan x="0" y="0">LinkedIn</tspan></text>
  </g>
</svg>
