<svg xmlns="http://www.w3.org/2000/svg" width="152.448" height="45.873" viewBox="0 0 152.448 45.873">
  <defs>
    <style>
      .cls-1, .cls-3 {
        fill: #fff;
      }

      .cls-2 {
        fill: #03a9f4;
      }

      .cls-3 {
        font-size: 13px;
        font-family: Roboto-Medium, Roboto;
        font-weight: 500;
      }

      .cls-4, .cls-5 {
        stroke: none;
      }

      .cls-5 {
        fill: #1473e9;
      }
    </style>
  </defs>
  <g id="Group_9239" data-name="Group 9239" transform="translate(-156.938 -48)">
    <g id="Group_8399" data-name="Group 8399" transform="translate(156.938 48)">
      <g id="Path_474" data-name="Path 474" class="cls-1">
        <path class="cls-4" d="M 74.52873229980469 45.37261962890625 L 1.03934121131897 45.37261962890625 C 0.8385628461837769 45.10766220092773 0.499998539686203 43.93882369995117 0.499998539686203 42.04989624023438 L 0.499998539686203 3.822717905044556 C 0.499998539686203 1.933791041374207 0.8385628461837769 0.7649552226066589 1.03934121131897 0.4999979138374329 L 74.52873229980469 0.4999979138374329 C 74.72950744628906 0.7649393677711487 75.06807708740234 1.933791041374207 75.06807708740234 3.822717905044556 L 75.06807708740234 42.04989624023438 C 75.06807708740234 43.93882369995117 74.72950744628906 45.1076774597168 74.52873229980469 45.37261962890625 Z"/>
        <path class="cls-5" d="M 1.35186767578125 0.9999961853027344 C 1.20037841796875 1.419769287109375 0.9999923706054688 2.374893188476562 0.9999923706054688 3.822719573974609 L 0.9999923706054688 42.04989624023438 C 0.9999923706054688 43.49772262573242 1.20037841796875 44.45284271240234 1.35186767578125 44.87261962890625 L 74.21620178222656 44.87261962890625 C 74.36769104003906 44.45284652709961 74.56806945800781 43.49773406982422 74.56806945800781 42.04989624023438 L 74.56806945800781 3.822719573974609 C 74.56806945800781 2.374881744384766 74.36769104003906 1.419769287109375 74.21620178222656 0.9999961853027344 L 1.35186767578125 0.9999961853027344 M 0.9446029663085938 -3.814697265625e-06 L 74.62348175048828 -3.814697265625e-06 C 75.14516448974609 -3.814697265625e-06 75.56806945800781 1.71148681640625 75.56806945800781 3.822719573974609 L 75.56806945800781 42.04989624023438 C 75.56806945800781 44.16111755371094 75.14516448974609 45.87261962890625 74.62348175048828 45.87261962890625 L 0.9446029663085938 45.87261962890625 C 0.42291259765625 45.87261962890625 -7.62939453125e-06 44.16111755371094 -7.62939453125e-06 42.04989624023438 L -7.62939453125e-06 3.822719573974609 C -7.62939453125e-06 1.71148681640625 0.42291259765625 -3.814697265625e-06 0.9446029663085938 -3.814697265625e-06 Z"/>
      </g>
      <g id="Group_8390" data-name="Group 8390" transform="translate(48.38)">
        <path id="Path_472" data-name="Path 472" class="cls-2" d="M1.3,0H102.767c.718,0,1.3,1.711,1.3,3.823V42.05c0,2.111-.582,3.823-1.3,3.823H1.3c-.718,0-1.3-1.711-1.3-3.823V3.823C0,1.711.582,0,1.3,0Z"/>
        <text id="Twitter" class="cls-3" transform="translate(51.933 27.438)"><tspan x="-20.354" y="0">Twitter</tspan></text>
      </g>
    </g>
    <path id="twitter_1_" data-name="twitter (1)" class="cls-2" d="M26.335,50.707a10.7,10.7,0,0,1-3.111.911A5.686,5.686,0,0,0,25.6,48.429a10.379,10.379,0,0,1-3.424,1.4A5.255,5.255,0,0,0,18.232,48a5.592,5.592,0,0,0-5.4,5.771,6.334,6.334,0,0,0,.125,1.316A14.982,14.982,0,0,1,1.834,49.052a6.116,6.116,0,0,0-.739,2.916,5.891,5.891,0,0,0,2.4,4.795,5.072,5.072,0,0,1-2.439-.711v.063a5.715,5.715,0,0,0,4.325,5.669,5.062,5.062,0,0,1-1.415.19,4.477,4.477,0,0,1-1.022-.1A5.51,5.51,0,0,0,7.986,65.9a10.414,10.414,0,0,1-6.694,2.461A9.47,9.47,0,0,1,0,68.277a14.5,14.5,0,0,0,8.282,2.589c9.935,0,15.366-8.795,15.366-16.418,0-.255-.008-.5-.02-.746A11.209,11.209,0,0,0,26.335,50.707Z" transform="translate(165.75 13.872)"/>
  </g>
</svg>
